<svg xmlns="http://www.w3.org/2000/svg" xmlns:xlink="http://www.w3.org/1999/xlink" width="60" height="60" viewBox="0 0 60 60"><defs><style>.a{fill:none;}.b{fill:#67acfe;}.c{fill:#fff;}.d{filter:url(#a);}</style><filter id="a" x="0" y="0" width="60" height="60" filterUnits="userSpaceOnUse"><feOffset dy="5" input="SourceAlpha"/><feGaussianBlur stdDeviation="4" result="b"/><feFlood flood-color="#67acfe" flood-opacity="0.2"/><feComposite operator="in" in2="b"/><feComposite in="SourceGraphic"/></filter></defs><g transform="translate(4 1)"><rect class="a" width="52" height="52"/><g class="d" transform="matrix(1, 0, 0, 1, -4, -1)"><rect class="b" width="36" height="36" rx="16" transform="translate(12 7)"/></g><path class="c" d="M32.242,16.369a1.559,1.559,0,0,0-1.218,1.274v10.4L40.17,32.6a.871.871,0,0,0,.431.112,2.594,2.594,0,0,0,1.612-.731,1.92,1.92,0,0,0-.712-2.474l-7.084-3.692V17.588c0-.525-.937-1.256-1.462-1.256Zm0,0" transform="translate(-7.372 -0.163)"/></g></svg>