<svg xmlns="http://www.w3.org/2000/svg" xmlns:xlink="http://www.w3.org/1999/xlink" width="60" height="60" viewBox="0 0 60 60"><defs><style>.a{fill:none;}.b{fill:#7e5df2;}.c{fill:#fff;}.d{filter:url(#a);}</style><filter id="a" x="0" y="0" width="60" height="60" filterUnits="userSpaceOnUse"><feOffset dy="5" input="SourceAlpha"/><feGaussianBlur stdDeviation="4" result="b"/><feFlood flood-color="#7e5df2" flood-opacity="0.204"/><feComposite operator="in" in2="b"/><feComposite in="SourceGraphic"/></filter></defs><g transform="translate(4 1)"><rect class="a" width="52" height="52"/><g class="d" transform="matrix(1, 0, 0, 1, -4, -1)"><rect class="b" width="36" height="36" rx="16" transform="translate(12 7)"/></g><path class="c" d="M124.321,73.971h-2.539a1.4,1.4,0,0,1-1.291-.855l-.869-2.048a.752.752,0,0,1,.2-.854,3.4,3.4,0,1,0-4.508.026.755.755,0,0,1,.207.865l-.853,2.011a1.4,1.4,0,0,1-1.291.855H110.75a.69.69,0,0,0-.69.69v2.7a.69.69,0,0,0,.69.69h13.572a.69.69,0,0,0,.69-.69v-2.7A.69.69,0,0,0,124.321,73.971ZM124,79.418H111.084a.344.344,0,0,0-.344.344v.673a.344.344,0,0,0,.344.344H124a.344.344,0,0,0,.344-.344v-.673A.344.344,0,0,0,124,79.418Z" transform="translate(-91.6 -48.248)"/></g></svg>