<svg xmlns="http://www.w3.org/2000/svg" xmlns:xlink="http://www.w3.org/1999/xlink" width="60" height="60" viewBox="0 0 60 60"><defs><style>.a{fill:#95daff;}.b{fill:none;}.c{fill:#fff;}.d{filter:url(#a);}</style><filter id="a" x="0" y="0" width="60" height="60" filterUnits="userSpaceOnUse"><feOffset dy="5" input="SourceAlpha"/><feGaussianBlur stdDeviation="4" result="b"/><feFlood flood-color="#95daff" flood-opacity="0.2"/><feComposite operator="in" in2="b"/><feComposite in="SourceGraphic"/></filter></defs><g transform="translate(4 1)"><g class="d" transform="matrix(1, 0, 0, 1, -4, -1)"><rect class="a" width="36" height="36" rx="16" transform="translate(12 7)"/></g><rect class="b" width="52" height="52"/><path class="c" d="M271.719,30.846a.426.426,0,0,0-.145.362l-.869,3.042a.445.445,0,0,0,.072.435.642.642,0,0,0,.362.29h.435l3.694-.652a.553.553,0,0,0,.362-.145l.072-.072,10.647-10.14a1.618,1.618,0,0,0,.072-2.318.071.071,0,0,0-.072-.072l-1.159-1.086a1.794,1.794,0,0,0-2.463,0L271.719,30.846Z" transform="translate(-252.405 -3.688)"/></g></svg>