<svg xmlns="http://www.w3.org/2000/svg" xmlns:xlink="http://www.w3.org/1999/xlink" width="60" height="60" viewBox="0 0 60 60"><defs><style>.a{fill:#b4baff;}.b{fill:none;}.c{fill:#fff;}.d{filter:url(#a);}</style><filter id="a" x="0" y="0" width="60" height="60" filterUnits="userSpaceOnUse"><feOffset dy="5" input="SourceAlpha"/><feGaussianBlur stdDeviation="4" result="b"/><feFlood flood-color="#b4baff" flood-opacity="0.2"/><feComposite operator="in" in2="b"/><feComposite in="SourceGraphic"/></filter></defs><g transform="translate(4 1)"><g class="d" transform="matrix(1, 0, 0, 1, -4, -1)"><rect class="a" width="36" height="36" rx="16" transform="translate(12 7)"/></g><rect class="b" width="52" height="52"/><path class="c" d="M42.513,2.43a7.913,7.913,0,0,1,1.409,1.276,8.342,8.342,0,0,1,1.056,1.542,7.768,7.768,0,0,1,.9,3.627,7.607,7.607,0,0,1-.626,3.072,7.945,7.945,0,0,1-4.191,4.191,7.82,7.82,0,0,1-6.13,0,8.143,8.143,0,0,1-2.509-1.691,7.844,7.844,0,0,1-1.691-2.5,7.7,7.7,0,0,1-.617-3.073,7.611,7.611,0,0,1,.221-1.83,8.082,8.082,0,0,1,.625-1.708,7.524,7.524,0,0,1,1-1.514A8.561,8.561,0,0,1,33.3,2.554a1.093,1.093,0,0,1,.836-.212,1.108,1.108,0,0,1,.731.44,1.055,1.055,0,0,1,.212.828,1.106,1.106,0,0,1-.441.739,5.468,5.468,0,0,0-1.7,1.99,5.6,5.6,0,0,0-.59,2.536,5.536,5.536,0,0,0,.44,2.193,5.655,5.655,0,0,0,3,3.011,5.575,5.575,0,0,0,4.385,0,5.716,5.716,0,0,0,3.012-3.011,5.422,5.422,0,0,0,.449-2.193,5.564,5.564,0,0,0-.633-2.6,5.493,5.493,0,0,0-1.779-2.017,1.06,1.06,0,0,1-.467-.721,1.117,1.117,0,0,1,.185-.845,1.082,1.082,0,0,1,.722-.449,1.112,1.112,0,0,1,.846.185Zm-4.528,6.5a1.112,1.112,0,0,1-1.109-1.109V1.127A1.1,1.1,0,0,1,37.2.335,1.054,1.054,0,0,1,37.986,0a1.071,1.071,0,0,1,.8.335,1.094,1.094,0,0,1,.326.792V7.818a1.068,1.068,0,0,1-.325.783,1.092,1.092,0,0,1-.8.325Z" transform="translate(-11.702 15.468)"/></g></svg>