<svg xmlns="http://www.w3.org/2000/svg" xmlns:xlink="http://www.w3.org/1999/xlink" width="16" height="16" viewBox="0 0 16 16"><defs><style>.a{fill:#fff;}.b{clip-path:url(#a);}</style><clipPath id="a"><rect class="a" width="16" height="16"/></clipPath></defs><g class="b"><path class="a" d="M16967,3688h-12a2,2,0,0,1-2-2v-8a2,2,0,0,1,2-2h12a2,2,0,0,1,2,2v8A2,2,0,0,1,16967,3688Zm-6-10a2,2,0,0,0-.066,4,3.243,3.243,0,0,0-2.936,3.382v.26a.741.741,0,0,0,.693.779h4.631a.741.741,0,0,0,.693-.779v-.26a3.24,3.24,0,0,0-2.945-3.381,2,2,0,0,0-.07-4Z" transform="translate(-16953 -3672)"/><path class="a" d="M1,0H13a1,1,0,0,1,1,1V1a0,0,0,0,1,0,0H0A0,0,0,0,1,0,1V1A1,1,0,0,1,1,0Z" transform="translate(1 2)"/><path class="a" d="M1,0H9a1,1,0,0,1,1,1V1a0,0,0,0,1,0,0H0A0,0,0,0,1,0,1V1A1,1,0,0,1,1,0Z" transform="translate(3)"/></g></svg>