<?xml version="1.0" standalone="no"?><!DOCTYPE svg PUBLIC "-//W3C//DTD SVG 1.1//EN" "http://www.w3.org/Graphics/SVG/1.1/DTD/svg11.dtd"><svg t="1606898751743" class="icon" viewBox="0 0 1024 1024" version="1.1" xmlns="http://www.w3.org/2000/svg" p-id="2826" xmlns:xlink="http://www.w3.org/1999/xlink" width="200" height="200"><defs><style type="text/css"></style></defs><path d="M512 128m-128 0a128 128 0 1 0 256 0 128 128 0 1 0-256 0Z" fill="#A0A8B5" p-id="2827"></path><path d="M192 512m-128 0a128 128 0 1 0 256 0 128 128 0 1 0-256 0Z" fill="#A0A8B5" p-id="2828"></path><path d="M832 576m-128 0a128 128 0 1 0 256 0 128 128 0 1 0-256 0Z" fill="#A0A8B5" p-id="2829"></path><path d="M576 896m-128 0a128 128 0 1 0 256 0 128 128 0 1 0-256 0Z" fill="#A0A8B5" p-id="2830"></path><path d="M511.936 831.936a320 320 0 1 1 320-320 320.384 320.384 0 0 1-320 320z m0-576a256 256 0 1 0 256 256 256 256 0 0 0-256-256z" fill="#A0A8B5" p-id="2831"></path></svg>