<svg xmlns="http://www.w3.org/2000/svg" width="32" height="32" viewBox="0 0 32 32"><defs><style>.a{fill:#ff3862;}.b{fill:#fff;}</style></defs><rect class="a" width="32" height="32" rx="16"/><g transform="translate(10 10)"><path class="b" d="M8.785,9H1.217a.637.637,0,0,1-.651-.566L0,.646A.578.578,0,0,1,.16.209.674.674,0,0,1,.653,0h8.7a.674.674,0,0,1,.494.21A.575.575,0,0,1,10,.646L9.436,8.434A.637.637,0,0,1,8.785,9ZM6.5,2a.5.5,0,0,0-.5.5v4a.5.5,0,1,0,1,0v-4A.5.5,0,0,0,6.5,2Zm-3,0a.5.5,0,0,0-.5.5v4a.5.5,0,1,0,1,0v-4A.5.5,0,0,0,3.5,2Z" transform="translate(0.999 3.001)"/><path class="b" d="M8,2H.5a.5.5,0,1,1,0-1H4A1,1,0,0,1,5,0H7A1,1,0,0,1,8,1h3.5a.5.5,0,0,1,0,1Z"/></g></svg>