<svg xmlns="http://www.w3.org/2000/svg" xmlns:xlink="http://www.w3.org/1999/xlink" width="72" height="72"
     viewBox="0 0 72 72">
  <defs>
    <style>.a{fill:none;stroke:#707070;}.b{fill:#3083f2;}.c{clip-path:url(#c);}.d{fill:#fff;}.e{filter:url(#a);}</style>
    <filter id="a" x="0" y="0" width="72" height="72" filterUnits="userSpaceOnUse">
      <feOffset dy="2" input="SourceAlpha"/>
      <feGaussianBlur stdDeviation="2" result="b"/>
      <feFlood flood-color="#56595b" flood-opacity="0.161"/>
      <feComposite operator="in" in2="b"/>
      <feComposite in="SourceGraphic"/>
    </filter>
    <clipPath id="c">
      <rect class="a" width="32" height="32"/>
    </clipPath>
  </defs>
  <g transform="translate(6 4)">
    <g class="e" transform="matrix(1, 0, 0, 1, -6, -4)">
      <circle class="b" cx="30" cy="30" r="30" transform="translate(6 4)"/>
    </g>
    <g class="c" transform="translate(14 14)">
      <g transform="matrix(0.966, 0.259, -0.259, 0.966, 6.957, 0)">
        <path class="d"
              d="M4.192,17.412l8.918,4.639a2.1,2.1,0,0,0-.338.862,1.665,1.665,0,0,0,.48,1.484l2.15,2.041a1.886,1.886,0,0,0,2.631-.207l8.339-8.383a1.968,1.968,0,0,0,.065-2.663l-2.15-2.041a1.813,1.813,0,0,0-2.238-.12L17.52,4.019a.787.787,0,0,0-.579-.426L1.213.024A.94.94,0,0,0,.307.319,1.018,1.018,0,0,0,.012.9a.884.884,0,0,0,.011.338L3.745,16.877A.663.663,0,0,0,4.192,17.412Z"/>
        <path class="b"
              d="M0,1.31,6.254,7.455a2.509,2.509,0,0,0-.131.371.686.686,0,0,0-.033.207,2.5,2.5,0,0,0,1.877,2.772,2.469,2.469,0,0,0,2.991-1.834A2.5,2.5,0,0,0,9.125,5.982a2.369,2.369,0,0,0-1.484.109L1.441,0,13.458,2.74l4.6,9.114L11.9,18.032,2.86,13.338Z"
              transform="translate(2.566 2.578)"/>
      </g>
    </g>
  </g>
</svg>
