<svg xmlns="http://www.w3.org/2000/svg" xmlns:xlink="http://www.w3.org/1999/xlink" width="16" height="16" viewBox="0 0 16 16"><defs><style>.a{fill:#a0a8b5;}.b{clip-path:url(#a);}</style><clipPath id="a"><rect class="a" width="16" height="16"/></clipPath></defs><g class="b"><path class="a" d="M9.112.163a1,1,0,0,1,.776,0l6.923,2.915a1,1,0,0,1,0,1.843L9.888,7.837a1,1,0,0,1-.776,0L2.189,4.922a1,1,0,0,1,0-1.843Z" transform="translate(-1.5)"/><path class="a" d="M7.923,4.915a.992.992,0,0,1-.388-.078L.612,1.922A.985.985,0,0,1,0,1,.986.986,0,0,1,.612.078L.8,0,7.536,2.837a1,1,0,0,0,.776,0L15.048,0l.186.078A.986.986,0,0,1,15.847,1a.985.985,0,0,1-.612.921L8.311,4.837A1,1,0,0,1,7.923,4.915Z" transform="translate(0.077 7)"/><path class="a" d="M7.923,4.915a.992.992,0,0,1-.388-.078L.612,1.922A.985.985,0,0,1,0,1,.986.986,0,0,1,.612.078L.8,0,7.536,2.837a1,1,0,0,0,.776,0L15.048,0l.186.078A.986.986,0,0,1,15.847,1a.985.985,0,0,1-.612.921L8.311,4.837A1,1,0,0,1,7.923,4.915Z" transform="translate(0.077 11)"/></g></svg>