<?xml version="1.0" standalone="no"?><!DOCTYPE svg PUBLIC "-//W3C//DTD SVG 1.1//EN" "http://www.w3.org/Graphics/SVG/1.1/DTD/svg11.dtd"><svg class="icon" width="16px" height="16.00px" viewBox="0 0 1024 1024" version="1.1" xmlns="http://www.w3.org/2000/svg"><path fill="#A0A8B5" d="M487.168 10.432a64 64 0 0 1 49.664 0l443.072 186.56a64 64 0 0 1 0 117.952L536.832 501.568a64 64 0 0 1-49.664 0L44.096 315.008a64 64 0 0 1 0-117.952zM512 762.56a63.488 63.488 0 0 1-24.832-4.992L44.096 571.008A63.04 63.04 0 0 1 4.928 512a63.104 63.104 0 0 1 39.168-59.008L56.128 448l431.104 181.568a64 64 0 0 0 49.664 0L968 448l11.904 4.992a63.104 63.104 0 0 1 39.232 59.008 63.04 63.04 0 0 1-39.168 58.944l-443.136 186.624a64 64 0 0 1-24.832 4.992zM512 1018.56a63.488 63.488 0 0 1-24.832-4.992L44.096 827.008A63.04 63.04 0 0 1 4.928 768a63.104 63.104 0 0 1 39.168-59.008L56.128 704l431.104 181.568a64 64 0 0 0 49.664 0L968 704l11.904 4.992a63.104 63.104 0 0 1 39.232 59.008 63.04 63.04 0 0 1-39.168 58.944l-443.136 186.624a64 64 0 0 1-24.832 4.992z" /></svg>