<?xml version="1.0" standalone="no"?><!DOCTYPE svg PUBLIC "-//W3C//DTD SVG 1.1//EN" "http://www.w3.org/Graphics/SVG/1.1/DTD/svg11.dtd"><svg class="icon" width="16px" height="16.00px" viewBox="0 0 1024 1024" version="1.1" xmlns="http://www.w3.org/2000/svg"><path fill="#A0A8B5" d="M912.64 386.88V224.512a47.872 47.872 0 0 0-47.424-48H433.92l-8.384-19.52A47.616 47.616 0 0 0 382.016 128H111.168a47.488 47.488 0 0 0-47.424 48v750.4a47.872 47.872 0 0 0 47.424 48h801.152a47.488 47.488 0 0 0 47.424-48V434.304a47.744 47.744 0 0 0-47.104-47.424z m-63.04 0H483.072L451.84 240.128h397.248v146.752z" /></svg>