<svg xmlns="http://www.w3.org/2000/svg" xmlns:xlink="http://www.w3.org/1999/xlink" width="16" height="16" viewBox="0 0 16 16"><defs><style>.a{fill:#a0a8b5;}.b{clip-path:url(#a);}</style><clipPath id="a"><rect class="a" width="16" height="16"/></clipPath></defs><g class="b"><path class="a" d="M114.123,127.437V124.9a.748.748,0,0,0-.741-.75h-6.739l-.131-.305a.744.744,0,0,0-.68-.453H101.6a.742.742,0,0,0-.741.75v11.725a.748.748,0,0,0,.741.75h12.518a.742.742,0,0,0,.741-.75v-7.689A.746.746,0,0,0,114.123,127.437Zm-.985,0h-5.727l-.488-2.293h6.207v2.293Z" transform="translate(-99.863 -121.392)"/></g></svg>