<svg xmlns="http://www.w3.org/2000/svg" xmlns:xlink="http://www.w3.org/1999/xlink" width="16" height="16" viewBox="0 0 16 16"><defs><style>.a{fill:#a0a8b5;}.b{fill:none;}.c{clip-path:url(#a);}.d{clip-path:url(#b);}.e{fill:#fff;}</style><clipPath id="a"><rect class="a" width="16" height="16"/></clipPath><clipPath id="b"><rect class="b" width="6" height="11"/></clipPath></defs><g class="c"><rect class="a" width="12" height="16" rx="1"/><path class="a" d="M0,0H2A1,1,0,0,1,3,1v9a1,1,0,0,1-1,1H0a0,0,0,0,1,0,0V0A0,0,0,0,1,0,0Z" transform="translate(13 5)"/><g class="d" transform="translate(3 3)"><g transform="translate(-3 -3)"><rect class="e" width="2" height="1.5" rx="0.75" transform="translate(3 3)"/></g><g transform="translate(1 -3)"><rect class="e" width="2" height="1.5" rx="0.75" transform="translate(3 3)"/></g><g transform="translate(-3 1)"><rect class="e" width="2" height="1.5" rx="0.75" transform="translate(3 3)"/></g><g transform="translate(1 1)"><rect class="e" width="2" height="1.5" rx="0.75" transform="translate(3 3)"/></g><g transform="translate(-3 5)"><rect class="e" width="2" height="1.5" rx="0.75" transform="translate(3 3)"/></g><g transform="translate(1 5)"><rect class="e" width="2" height="1.5" rx="0.75" transform="translate(3 3)"/></g></g></g></svg>