<?xml version="1.0" standalone="no"?><!DOCTYPE svg PUBLIC "-//W3C//DTD SVG 1.1//EN" "http://www.w3.org/Graphics/SVG/1.1/DTD/svg11.dtd"><svg class="icon" width="16px" height="16.00px" viewBox="0 0 1024 1024" version="1.1" xmlns="http://www.w3.org/2000/svg"><path fill="#A0A8B5" d="M511.982081 1024a511.982081 511.982081 0 1 1 395.890143-187.12945l-137.019204-136.955207A316.85291 316.85291 0 0 0 831.970881 512.401906a319.9888 319.9888 0 1 0-128.379507 255.671051l136.763214 136.891209A512.942047 512.942047 0 0 1 511.982081 1024z m0-287.541936a223.99216 223.99216 0 1 1 165.754198-73.341433 31.99888 31.99888 0 0 0-6.399776 5.183818 40.894569 40.894569 0 0 0-5.759798 7.103752 223.99216 223.99216 0 0 1-153.594624 60.989865z" /></svg>