<?xml version="1.0" standalone="no"?><!DOCTYPE svg PUBLIC "-//W3C//DTD SVG 1.1//EN" "http://www.w3.org/Graphics/SVG/1.1/DTD/svg11.dtd"><svg class="icon" width="16px" height="16.00px" viewBox="0 0 1024 1024" version="1.1" xmlns="http://www.w3.org/2000/svg"><path fill="#A0A8B5" d="M674.887506 49.151754A70.783646 70.783646 0 0 0 607.559843 0.255999 69.439653 69.439653 0 0 0 537.736192 67.839661a67.96766 67.96766 0 0 0 69.823651 67.327663 62.783686 62.783686 0 0 0 49.151754-21.247894 435.773821 435.773821 0 0 1 297.726511 409.597952 404.349978 404.349978 0 0 1-21.247894 132.927336l60.351699 34.623827A493.757531 493.757531 0 0 0 675.143505 49.215754z m197.759011 712.252439a69.439653 69.439653 0 0 0-69.823651 67.583662c0 7.231964 2.239989 11.711941 2.239989 18.431908a441.149794 441.149794 0 0 1-291.070545 109.503452 449.149754 449.149754 0 0 1-325.694371-141.88729l-62.591687 34.623827a511.99744 511.99744 0 0 0 386.558067 174.271128 503.421483 503.421483 0 0 0 339.646302-130.175349 35.583822 35.583822 0 0 0 16.191919 2.239989 69.439653 69.439653 0 0 0 69.823651-67.583662 65.151674 65.151674 0 0 0-65.279674-67.007665z m-786.556067-153.599232a505.98147 505.98147 0 0 1-9.471953-83.775581 433.405833 433.405833 0 0 1 346.878266-421.373893V32.959835A501.373493 501.373493 0 0 0 6.730847 524.02938a473.597632 473.597632 0 0 0 11.711941 102.399488 64.511677 64.511677 0 0 0-18.431908 46.335768 67.96766 67.96766 0 0 0 69.951651 67.455663 69.439653 69.439653 0 0 0 69.82365-67.583662 67.519662 67.519662 0 0 0-53.695731-64.831676zM315.337304 832.251839a57.599712 57.599712 0 0 1-59.135705-56.447718v-19.199904A246.206769 246.206769 0 0 1 433.800711 523.517382a159.9992 159.9992 0 1 1 156.351219 0 246.590767 246.590767 0 0 1 177.98311 233.086835v19.199904a57.599712 57.599712 0 0 1-59.263704 56.447718z" /></svg>