<?xml version="1.0" standalone="no"?><!DOCTYPE svg PUBLIC "-//W3C//DTD SVG 1.1//EN" "http://www.w3.org/Graphics/SVG/1.1/DTD/svg11.dtd"><svg class="icon" width="16px" height="16.00px" viewBox="0 0 1024 1024" version="1.1" xmlns="http://www.w3.org/2000/svg"><path fill="#A0A8B5" d="M896 1024H128a128 128 0 0 1-128-128V384a128 128 0 0 1 128-128h768a128 128 0 0 1 128 128v512a128 128 0 0 1-128 128zM512 384a128 128 0 0 0-4.224 256 207.552 207.552 0 0 0-187.904 216.448v16.64a47.424 47.424 0 0 0 44.352 49.856h296.384a47.424 47.424 0 0 0 44.352-49.856v-16.64a207.36 207.36 0 0 0-188.48-216.384 128 128 0 0 0-4.48-256zM128 128h768a64 64 0 0 1 64 64H64a64 64 0 0 1 64-64zM256 0h512a64 64 0 0 1 64 64H192a64 64 0 0 1 64-64z" /></svg>