<?xml version="1.0" standalone="no"?><!DOCTYPE svg PUBLIC "-//W3C//DTD SVG 1.1//EN" "http://www.w3.org/Graphics/SVG/1.1/DTD/svg11.dtd"><svg class="icon" width="16px" height="16.00px" viewBox="0 0 1024 1024" version="1.1" xmlns="http://www.w3.org/2000/svg"><path fill="#A0A8B5" d="M0 0m64 0l640 0q64 0 64 64l0 896q0 64-64 64l-640 0q-64 0-64-64l0-896q0-64 64-64ZM832 320h128a64 64 0 0 1 64 64v576a64 64 0 0 1-64 64h-128V320zM192 192m48 0l32 0q48 0 48 48l0 0q0 48-48 48l-32 0q-48 0-48-48l0 0q0-48 48-48ZM448 192m48 0l32 0q48 0 48 48l0 0q0 48-48 48l-32 0q-48 0-48-48l0 0q0-48 48-48ZM192 448m48 0l32 0q48 0 48 48l0 0q0 48-48 48l-32 0q-48 0-48-48l0 0q0-48 48-48ZM448 448m48 0l32 0q48 0 48 48l0 0q0 48-48 48l-32 0q-48 0-48-48l0 0q0-48 48-48ZM192 704m48 0l32 0q48 0 48 48l0 0q0 48-48 48l-32 0q-48 0-48-48l0 0q0-48 48-48ZM448 704m48 0l32 0q48 0 48 48l0 0q0 48-48 48l-32 0q-48 0-48-48l0 0q0-48 48-48Z" /></svg>