<svg xmlns="http://www.w3.org/2000/svg" xmlns:xlink="http://www.w3.org/1999/xlink" width="16" height="16" viewBox="0 0 16 16"><defs><style>.a{fill:#a0a8b5;}.b{clip-path:url(#a);}.c{fill:none;stroke:#a0a8b5;stroke-linecap:round;stroke-linejoin:round;stroke-width:1.5px;}</style><clipPath id="a"><rect class="a" width="16" height="16"/></clipPath></defs><g class="b"><g transform="translate(1 1)"><path class="a" d="M125.5,88a5.555,5.555,0,0,1,5.5,5.608v.431a1.282,1.282,0,0,1-1.269,1.294h-8.462A1.282,1.282,0,0,1,120,94.039v-.431A5.555,5.555,0,0,1,125.5,88Z" transform="translate(-120 -81.333)"/><ellipse class="a" cx="3.667" cy="3.667" rx="3.667" ry="3.667" transform="translate(1.833 1.167)"/><path class="c" d="M45.623,19.371a2.9,2.9,0,0,1,2.194,2.923,3.142,3.142,0,0,1-1.35,2.67,4.994,4.994,0,0,1,3.157,3.643" transform="translate(-35.623 -19.371)"/></g></g></svg>