<?xml version="1.0" standalone="no"?><!DOCTYPE svg PUBLIC "-//W3C//DTD SVG 1.1//EN" "http://www.w3.org/Graphics/SVG/1.1/DTD/svg11.dtd"><svg class="icon" width="16px" height="16.00px" viewBox="0 0 1024 1024" version="1.1" xmlns="http://www.w3.org/2000/svg"><path fill="#A0A8B5" d="M902.08 487.552h-73.088V292.544a97.408 97.408 0 0 0-97.536-97.536H536.448V121.92a121.92 121.92 0 1 0-243.84 0v73.088H97.728A97.024 97.024 0 0 0 0.704 292.544l-0.32 185.6h72.768a131.648 131.648 0 1 1 0 263.232H0.384l-0.32 185.6A97.408 97.408 0 0 0 97.536 1024h185.6v-73.088a131.648 131.648 0 0 1 263.232 0V1024h185.6a97.408 97.408 0 0 0 97.536-97.536v-195.2h73.088a121.728 121.728 0 1 0 0-243.52z" /></svg>