<?xml version="1.0" standalone="no"?><!DOCTYPE svg PUBLIC "-//W3C//DTD SVG 1.1//EN" "http://www.w3.org/Graphics/SVG/1.1/DTD/svg11.dtd"><svg class="icon" width="16px" height="16.00px" viewBox="0 0 1024 1024" version="1.1" xmlns="http://www.w3.org/2000/svg"><path fill="#A0A8B5" d="M679.36448 1023.936H88.58048a89.6 89.6 0 0 1-88.576-90.368v-30.08a392.64 392.64 0 0 1 145.152-306.56 320 320 0 0 0 477.696 0 392.576 392.576 0 0 1 145.088 306.56v30.144a89.6 89.6 0 0 1-88.576 90.304zM815.87648 544.128a48.128 48.128 0 0 1 0-96h160a48.128 48.128 0 0 1 0 96z m0-192a48 48 0 1 1 0-96h160a48 48 0 1 1 0 96z m-128-192a48 48 0 0 1 0-96h288a48 48 0 1 1 0 96zM160.00448 384a224 224 0 1 0 448 0 224 224 0 1 0-448 0Z" /></svg>