<?xml version="1.0" standalone="no"?><!DOCTYPE svg PUBLIC "-//W3C//DTD SVG 1.1//EN" "http://www.w3.org/Graphics/SVG/1.1/DTD/svg11.dtd"><svg t="1605251755384" class="icon" viewBox="0 0 1024 1024" version="1.1" xmlns="http://www.w3.org/2000/svg" p-id="11611" xmlns:xlink="http://www.w3.org/1999/xlink" width="16" height="16"><defs><style type="text/css"></style></defs><path d="M384 128a128 128 0 1 0 256 0 128 128 0 1 0-256 0zM64 512a128 128 0 1 0 256 0 128 128 0 1 0-256 0zM704 576a128 128 0 1 0 256 0 128 128 0 1 0-256 0zM448 896a128 128 0 1 0 256 0 128 128 0 1 0-256 0z" fill="#333333" p-id="11612"></path><path d="M601.6 916.032l-49.984-40 219.2-273.984-641.408-64 358.4-430.336 49.216 41.024-281.6 337.664 638.592 64z" fill="#333333" p-id="11613"></path></svg>