<?xml version="1.0" standalone="no"?><!DOCTYPE svg PUBLIC "-//W3C//DTD SVG 1.1//EN" "http://www.w3.org/Graphics/SVG/1.1/DTD/svg11.dtd"><svg class="icon" width="16px" height="16.00px" viewBox="0 0 1024 1024" version="1.1" xmlns="http://www.w3.org/2000/svg"><path fill="#A0A8B5" d="M496.288982 1023.936004a511.968002 511.968002 0 1 1 527.775014-511.968002c0 14.71908-0.63996 29.630148-1.91988 44.349228a354.281857 354.281857 0 0 0-83.962752-64.63596 426.533342 426.533342 0 1 0-757.328667 289.005937A415.270046 415.270046 0 0 1 479.586026 598.362602a351.978001 351.978001 0 0 0 16.830948 425.317418z m19.1988-469.026686H511.968002a170.549341 170.549341 0 1 1 150.774577-90.746328 353.065933 353.065933 0 0 0-147.190801 90.746328zM874.697331 1024h-213.234672a43.261296 43.261296 0 0 1-37.117681-20.734704L517.727642 821.196675a41.91738 41.91738 0 0 1 0-41.91738l106.617336-182.068621a42.55734 42.55734 0 0 1 37.117681-21.182676h213.234672a42.621336 42.621336 0 0 1 36.733705 21.182676l107.001312 182.068621a41.91738 41.91738 0 0 1 0 41.91738l-107.001312 182.068621a42.749328 42.749328 0 0 1-36.733705 20.734704z m-107.001312-307.180801a83.1948 83.1948 0 1 0 83.1948 83.1948 83.1948 83.1948 0 0 0-83.1948-83.1948z" /></svg>