<?xml version="1.0" standalone="no"?><!DOCTYPE svg PUBLIC "-//W3C//DTD SVG 1.1//EN" "http://www.w3.org/Graphics/SVG/1.1/DTD/svg11.dtd"><svg class="icon" width="16px" height="16.00px" viewBox="0 0 1024 1024" version="1.1" xmlns="http://www.w3.org/2000/svg"><path fill="#A0A8B5" d="M453.859634 959.04406A479.970002 479.970002 0 0 1 339.114805 21.054684l76.795201 92.410224L321.259921 517.471658a15.551028 15.551028 0 0 0 6.3996 18.046872l112.248985 138.359353a352.361977 352.361977 0 0 0 14.527092 285.102181z m505.568402-454.371602A351.594025 351.594025 0 0 0 767.952003 447.972002a347.050309 347.050309 0 0 0-138.359353 28.350228L544.605962 113.336916 620.697206 20.926692A484.065746 484.065746 0 0 1 863.882007 191.988001a475.554278 475.554278 0 0 1 95.994001 287.982001c0 8.255484 0 16.254984-0.511968 24.382476zM874.697331 1024h-213.234672a43.261296 43.261296 0 0 1-37.117681-20.734704L517.727642 821.196675a41.91738 41.91738 0 0 1 0-41.91738l106.617336-182.068621a42.55734 42.55734 0 0 1 37.117681-21.182676h213.234672a42.621336 42.621336 0 0 1 36.733705 21.182676l107.001312 182.068621a41.91738 41.91738 0 0 1 0 41.91738l-107.001312 182.068621a42.749328 42.749328 0 0 1-36.733705 20.734704z m-107.001312-307.180801a83.1948 83.1948 0 1 0 83.1948 83.1948 83.1948 83.1948 0 0 0-83.1948-83.1948z" /></svg>