<?xml version="1.0" standalone="no"?><!DOCTYPE svg PUBLIC "-//W3C//DTD SVG 1.1//EN" "http://www.w3.org/Graphics/SVG/1.1/DTD/svg11.dtd"><svg t="1605252021019" class="icon" viewBox="0 0 1024 1024" version="1.1" xmlns="http://www.w3.org/2000/svg" p-id="12879" xmlns:xlink="http://www.w3.org/1999/xlink" width="16" height="16"><defs><style type="text/css"></style></defs><path d="M649.216 585.088h256q64 0 64 64v256q0 64-64 64h-256q-64 0-64-64v-256q0-64 64-64zM128 585.088h256q64 0 64 64v256q0 64-64 64H128q-64 0-64-64v-256q0-64 64-64zM128 64h256q64 0 64 64v256q0 64-64 64H128q-64 0-64-64V128q0-64 64-64zM768 474.432a127.616 127.616 0 0 1-90.496-37.44l-90.56-90.496a128 128 0 0 1 0-181.056l90.56-90.496a128 128 0 0 1 180.992 0l90.56 90.496a128 128 0 0 1 0 181.056l-90.56 90.496A127.616 127.616 0 0 1 768 474.432z m0-340.928a32 32 0 0 0-22.656 9.344l-90.496 90.496a32 32 0 0 0 0 45.248l90.496 90.56a32 32 0 0 0 45.312 0l90.496-90.56a32 32 0 0 0 0-45.248l-90.496-90.496A32 32 0 0 0 768 133.504z" fill="#333333" p-id="12880"></path></svg>