<?xml version="1.0" standalone="no"?><!DOCTYPE svg PUBLIC "-//W3C//DTD SVG 1.1//EN" "http://www.w3.org/Graphics/SVG/1.1/DTD/svg11.dtd"><svg class="icon" width="16px" height="16.00px" viewBox="0 0 1024 1024" version="1.1" xmlns="http://www.w3.org/2000/svg"><path fill="#A0A8B5" d="M63.995975 959.939625A63.995975 63.995975 0 0 1 0 895.94365V703.955725a63.995975 63.995975 0 0 1 63.995975-63.995975h191.987925a63.995975 63.995975 0 0 1 63.995975 63.995975v191.987925a63.995975 63.995975 0 0 1-63.995975 63.995975z m351.977863-639.95975a95.993963 95.993963 0 0 1-95.993963-95.993962V95.993963A95.993963 95.993963 0 0 1 415.973838 0h127.99195a95.993963 95.993963 0 0 1 95.993962 95.993963v127.99195a95.993963 95.993963 0 0 1-95.993962 95.993962zM479.969813 479.969813a31.997988 31.997988 0 0 1-31.997988-31.997988v-63.995975a31.997988 31.997988 0 0 1 63.995975 0v63.995975a31.997988 31.997988 0 0 1-31.997987 31.997988z"  /><path fill="#A0A8B5" d="M159.989938 607.961763a31.997988 31.997988 0 0 1-31.997988-31.997988v-63.995975a95.993963 95.993963 0 0 1 95.993963-95.993962H799.949688a31.997988 31.997988 0 0 1 0 63.995975H223.985913a31.997988 31.997988 0 0 0-31.997988 31.997987v63.995975a31.997988 31.997988 0 0 1-31.997987 31.997988zM874.696658 1023.9996H661.462742a43.260983 43.260983 0 0 1-37.117986-20.734992L517.727798 821.196679a41.916984 41.916984 0 0 1 0-41.917983l106.616958-182.067929a42.556983 42.556983 0 0 1 37.117986-21.182992h213.233916a42.620983 42.620983 0 0 1 36.733986 21.182992l107.000958 182.067929a41.916984 41.916984 0 0 1 0 41.917983l-107.000958 182.067929A42.749983 42.749983 0 0 1 874.696658 1023.9996zM767.6957 716.81972a83.194968 83.194968 0 1 0 83.194968 83.193967 83.194968 83.194968 0 0 0-83.194968-83.194967z"  /></svg>