<?xml version="1.0" standalone="no"?><!DOCTYPE svg PUBLIC "-//W3C//DTD SVG 1.1//EN" "http://www.w3.org/Graphics/SVG/1.1/DTD/svg11.dtd"><svg class="icon" width="16px" height="16.00px" viewBox="0 0 1024 1024" version="1.1" xmlns="http://www.w3.org/2000/svg"><path fill="#A0A8B5" d="M874.665627 1024h-213.226944a43.259728 43.259728 0 0 1-37.116335-20.733953L517.708876 821.204026a41.915861 41.915861 0 0 1 0-41.915861l106.613472-182.062021a42.555798 42.555798 0 0 1 37.116335-21.181908h213.226944a42.619791 42.619791 0 0 1 36.732372 21.181908l106.997434 182.062021a41.915861 41.915861 0 0 1 0 41.915861l-106.997434 182.062021a42.747779 42.747779 0 0 1-36.732372 20.733953z m-106.997434-307.169667a83.191785 83.191785 0 1 0 83.191785 83.191785 83.191785 83.191785 0 0 0-83.191785-83.191785zM429.26961 895.948645H95.926527a93.36678 93.36678 0 0 1-95.990521-90.295083v-30.141024a393.881104 393.881104 0 0 1 283.172037-371.163347 223.977882 223.977882 0 1 1 265.573775 0 422.806248 422.806248 0 0 1 117.556391 58.42623 352.413199 352.413199 0 0 0-236.776618 432.981243z" /></svg>