<?xml version="1.0" standalone="no"?><!DOCTYPE svg PUBLIC "-//W3C//DTD SVG 1.1//EN" "http://www.w3.org/Graphics/SVG/1.1/DTD/svg11.dtd"><svg class="icon" width="16px" height="16.00px" viewBox="0 0 1024 1024" version="1.1" xmlns="http://www.w3.org/2000/svg"><path fill="#A0A8B5" d="M547.776 1023.808a77.888 77.888 0 0 1-56.384-23.744L23.296 532.352a80.128 80.128 0 0 1-22.528-66.88l45.12-350.656A79.936 79.936 0 0 1 115.008 45.632l350.72-44.8a81.28 81.28 0 0 1 66.88 22.528l468.032 468.096a80.128 80.128 0 0 1 0 113.152l-396.096 396.16a80.704 80.704 0 0 1-56.768 23.04z m-195.968-800a128 128 0 1 0 128 128 128 128 0 0 0-128-128.064z" /></svg>