<?xml version="1.0" standalone="no"?><!DOCTYPE svg PUBLIC "-//W3C//DTD SVG 1.1//EN" "http://www.w3.org/Graphics/SVG/1.1/DTD/svg11.dtd"><svg class="icon" width="16px" height="16.00px" viewBox="0 0 1024 1024" version="1.1" xmlns="http://www.w3.org/2000/svg"><path fill="#A0A8B5" d="M320 896a128 128 0 0 1-128-128V256a128 128 0 0 1 128-128h384a128 128 0 0 1 128 128v512a128 128 0 0 1-128 128z m640-128a64 64 0 0 1-64-64V320a64 64 0 0 1 64-64h64v512zM0 768V256h64a64 64 0 0 1 64 64v384a64 64 0 0 1-64 64z" /></svg>