<?xml version="1.0" standalone="no"?><!DOCTYPE svg PUBLIC "-//W3C//DTD SVG 1.1//EN" "http://www.w3.org/Graphics/SVG/1.1/DTD/svg11.dtd"><svg class="icon" width="16px" height="7.21px" viewBox="0 0 2271 1024" version="1.1" xmlns="http://www.w3.org/2000/svg"><path fill="#A0A8B5" d="M418.688328 362.863218h-192.429156a140.930491 140.930491 0 1 0-5.889549 0h-192.596631v-307.038108a27.912555 27.912555 0 0 1 27.912556-27.912555h334.950662a27.912555 27.912555 0 0 1 27.912555 27.912555v307.038108z m-265.56005-55.825111a13.481764 13.481764 0 1 1 0-26.991441 13.956278 13.956278 0 0 1 6.531538 1.563103 96.605354 96.605354 0 0 1-14.682004-17.249959 10.523033 10.523033 0 0 1 1.116502-1.116502c2.233004-2.093442 7.452652-7.006051 11.862836-11.444148a95.600502 95.600502 0 0 0 61.407621 26.042414 57.583601 57.583601 0 0 0 30.982937-8.736629l-54.345745-54.17827-16.747534 16.747533-24.088535-24.451398 1.116503-1.060677c26.070327-25.651638 39.607916-39.077577 41.310581-41.226844a41.198931 41.198931 0 0 0 9.434444 1.172327 24.116448 24.116448 0 0 0 16.60797-5.582511l13.565502 12.504825-21.74388 21.715968 54.820258 54.792345 0.558251-0.614076a72.851769 72.851769 0 0 0 1.172327-63.752276 95.851715 95.851715 0 0 0-48.428283-45.609115 83.737666 83.737666 0 0 1 74.861473 44.185575 92.920896 92.920896 0 0 1-5.582511 87.087172l14.123753 14.598266-20.069127 20.013303-15.268168-15.18443c0 0.558251 0 0.586164-0.558251 0.586163a108.105326 108.105326 0 0 1-52.308128 15.128605 85.635719 85.635719 0 0 1-54.792346-20.543641 13.537589 13.537589 0 0 1-10.913809 21.604318zM0 362.863218m27.912555 0l390.775773 0q27.912555 0 27.912555 27.912555l0 0q0 27.912555-27.912555 27.912555l-390.775773 0q-27.912555 0-27.912555-27.912555l0 0q0-27.912555 27.912555-27.912555Z" /></svg>