<?xml version="1.0" standalone="no"?><!DOCTYPE svg PUBLIC "-//W3C//DTD SVG 1.1//EN" "http://www.w3.org/Graphics/SVG/1.1/DTD/svg11.dtd"><svg class="icon" width="16px" height="16.00px" viewBox="0 0 1024 1024" version="1.1" xmlns="http://www.w3.org/2000/svg"><path fill="#A0A8B5" d="M0 179.264S367.104-13.184 613.12 99.328s368.832 11.2 368.832 11.2a225.216 225.216 0 0 1 24.064 167.488 330.112 330.112 0 0 1-236.096 240.128c-133.696 25.6-248-17.28-324.096 15.936s-127.296 89.6-101.44 153.088c30.72 74.432 59.648 150.656 92.224 224.448a68.608 68.608 0 0 1-76.224 105.792c-33.216-6.784-44.288-44.288-57.216-72.576C260.096 849.536 0 179.264 0 179.264z" /></svg>