<?xml version="1.0" standalone="no"?><!DOCTYPE svg PUBLIC "-//W3C//DTD SVG 1.1//EN" "http://www.w3.org/Graphics/SVG/1.1/DTD/svg11.dtd"><svg class="icon" width="16px" height="16.00px" viewBox="0 0 1024 1024" version="1.1" xmlns="http://www.w3.org/2000/svg"><path fill="#A0A8B5" d="M429.284 896.006H191.796A63.996 63.996 0 0 1 127.8 832.01V704.018a63.996 63.996 0 0 1 63.996-63.996h262.382a353.001 353.001 0 0 0-25.214 255.984z m67.132-319.98h-304.62a63.996 63.996 0 0 1-63.996-63.995V384.039a63.996 63.996 0 0 1 63.996-63.996h639.958a63.996 63.996 0 0 1 63.996 63.996v87.994a351.977 351.977 0 0 0-399.27 103.994z m335.338-319.979H191.796a63.996 63.996 0 0 1-63.996-63.995V64.06A63.996 63.996 0 0 1 191.796 0.064h639.958A63.996 63.996 0 0 1 895.75 64.06v127.992a63.996 63.996 0 0 1-63.996 63.995z"  /><path fill="#A0A8B5" d="M223.985 255.983H31.998A31.998 31.998 0 0 1 0 223.985V31.998a31.998 31.998 0 0 1 63.996 0v159.99h159.99a31.998 31.998 0 0 1 0 63.995zM223.985 575.963H31.998A31.998 31.998 0 0 1 0 543.965V351.977a31.998 31.998 0 0 1 63.996 0v159.99h159.99a31.998 31.998 0 0 1 0 63.996zM223.985 895.942H31.998A31.998 31.998 0 0 1 0 863.944V671.956a31.998 31.998 0 0 1 63.996 0v159.99h159.99a31.998 31.998 0 0 1 0 63.996zM874.76 1023.997H661.524a43.261 43.261 0 0 1-37.118-20.734L517.79 821.195a41.917 41.917 0 0 1 0-41.918L624.407 597.21a42.557 42.557 0 0 1 37.118-21.182h213.234a42.621 42.621 0 0 1 36.734 21.182l107 182.068a41.917 41.917 0 0 1 0 41.918l-107 182.068a42.75 42.75 0 0 1-36.734 20.734z m-107.002-307.18a83.195 83.195 0 1 0 83.195 83.195 83.195 83.195 0 0 0-83.195-83.195z"  /></svg>