<?xml version="1.0" standalone="no"?><!DOCTYPE svg PUBLIC "-//W3C//DTD SVG 1.1//EN" "http://www.w3.org/Graphics/SVG/1.1/DTD/svg11.dtd"><svg class="icon" width="16px" height="16.00px" viewBox="0 0 1024 1024" version="1.1" xmlns="http://www.w3.org/2000/svg"><path fill="#A0A8B5" d="M906.108 767.997a45.312 45.312 0 0 1-16-2.88 632.381 632.381 0 0 0-211.711-44.8 319.999 319.999 0 0 0-164.671 46.464l-2.24 1.216a346.174 346.174 0 0 0-179.2-46.464 495.166 495.166 0 0 0-188.095 38.4 47.488 47.488 0 0 1-53.631-0.768 65.728 65.728 0 0 1-26.624-54.016v-489.79A67.008 67.008 0 0 1 84.8 166.015a346.686 346.686 0 0 1 233.79-102.4 290.75 290.75 0 0 1 93.056 15.553 342.079 342.079 0 0 1 68.288 32.512v367.87a32 32 0 0 0 64 0V116.03A312.83 312.83 0 0 1 713.02 63.616a291.903 291.903 0 0 1 93.183 15.552 346.878 346.878 0 0 1 137.152 88.127 68.736 68.736 0 0 1 16.512 45.248v492.414a66.688 66.688 0 0 1-22.016 50.496 49.472 49.472 0 0 1-31.744 12.544zM505.086 1023.996a64 64 0 0 1-41.216-15.04c-131.52-110.976-369.918 0.32-372.286 1.344A64 64 0 0 1 35.84 895.1c2.88-1.408 274.75-131.52 471.294-12.16 207.167-113.855 469.118 11.136 480.83 16.96a64 64 0 1 1-56.064 115.2c-2.304-1.024-239.871-113.664-388.734-3.328a64 64 0 0 1-38.08 12.224z"  /></svg>