<?xml version="1.0" standalone="no"?><!DOCTYPE svg PUBLIC "-//W3C//DTD SVG 1.1//EN" "http://www.w3.org/Graphics/SVG/1.1/DTD/svg11.dtd"><svg class="icon" width="16px" height="16.00px" viewBox="0 0 1024 1024" version="1.1" xmlns="http://www.w3.org/2000/svg"><path fill="#A0A8B5" d="M864.019998 1023.872016h-543.932009a255.968004 255.968004 0 0 1-255.968004-255.968004v-255.968004h127.984002a63.992001 63.992001 0 1 0 0-127.984002h-127.984002v-287.964005a95.988001 95.988001 0 0 1 95.988002-95.988001h543.932008a255.968004 255.968004 0 0 1 255.968004 255.968004v127.984002h-127.984002a63.992001 63.992001 0 1 0 0 127.984002h127.984002v415.948006a95.988001 95.988001 0 0 1-95.988001 95.988002z m-351.956006-450.503687a12.286464 12.286464 0 0 1 4.607424 0.895888l94.708162 38.395201a11.902512 11.902512 0 0 0 5.11936 1.215848 12.7984 12.7984 0 0 0 9.150856-4.223472 12.350456 12.350456 0 0 0 3.007624-9.534809l-7.487064-101.875265a12.7984 12.7984 0 0 1 2.87964-9.086864l66.231721-77.750282a13.182352 13.182352 0 0 0 2.623672-12.350456 12.7984 12.7984 0 0 0-9.342832-8.574928l-99.379578-24.060992a12.7984 12.7984 0 0 1-7.999-5.503312l-53.241345-87.221098A12.7984 12.7984 0 0 0 511.936008 267.742532a12.414448 12.414448 0 0 0-10.750656 5.951256l-53.625297 87.221098a12.15848 12.15848 0 0 1-7.871016 5.503312L340.181477 390.47919a12.7984 12.7984 0 0 0-9.27884 8.63892 12.7984 12.7984 0 0 0 2.495688 12.286464l66.359705 77.750282a15.422072 15.422072 0 0 1 3.135608 9.086864l-7.871016 101.875265a12.350456 12.350456 0 0 0 12.222472 13.758281 12.222472 12.222472 0 0 0 5.11936-1.151856l94.708162-38.395201a13.11836 13.11836 0 0 1 4.991376-1.151856z" /></svg>