<?xml version="1.0" standalone="no"?><!DOCTYPE svg PUBLIC "-//W3C//DTD SVG 1.1//EN" "http://www.w3.org/Graphics/SVG/1.1/DTD/svg11.dtd"><svg class="icon" width="16px" height="16.00px" viewBox="0 0 1024 1024" version="1.1" xmlns="http://www.w3.org/2000/svg"><path fill="#ffffff" d="M964.396702 955.955034c57.556832-61.649763 57.556832-62.225331-3.389457-121.508869a32.743442 32.743442 0 0 1-6.778916-49.94654A476.698476 476.698476 0 0 0 616.049963 67.149638c-8.377717 0-20.400699-11.063702-22.383213 7.802148a498.825881 498.825881 0 0 1 266.743942 392.217837 367.212591 367.212591 0 0 1-17.522858 186.995753c-16.371721 42.975768-18.034474 43.679241-49.179116 12.406695-71.62628-72.009993-143.380465-143.892081-214.303272-216.669498-21.67974-22.255309-59.219585-40.545591-59.859106-68.684487s36.260804-47.964027 57.045216-71.050712c51.801149-57.556832 51.737197-56.917312-1.27904-111.468398-13.429928-13.81364-22.766925-18.034474-40.033975-4.732451a118.631027 118.631027 0 0 1-99.125656 21.9995 45.53385 45.53385 0 0 0-48.283787 18.034475c-48.923308 53.847614-98.869848 106.7999-148.560579 159.88009-62.097427 66.510117-62.289283 66.510117 2.430177 131.677242 21.9995 22.191356 42.71996 57.876593 67.661254 61.521858 26.859855 3.901074 43.807145-38.371222 66.89383-58.580065a16.307769 16.307769 0 0 0 2.558081-2.749937c12.022983-16.94729 22.255309-12.790407 35.429428 0.31976q131.93305 131.29353 265.400949 261.116163c17.394954 16.883337 19.185611 25.580814-5.244067 35.877092a403.985011 403.985011 0 0 1-140.694479 34.342243 454.82688 454.82688 0 0 1-316.94629-121.061204c-7.930052-6.395204-16.563577-23.214589-26.795903-14.836872a244.744442 244.744442 0 0 0-59.34749 61.905571c-10.552086 18.22633 15.348489 31.144642 25.900575 45.278041 26.284287 35.301524 27.051711 34.662003-12.790407 50.650013a74.12041 74.12041 0 0 0 23.726205 143.828129 72.137897 72.137897 0 0 0 68.876343-67.149638c6.395204-44.766425 6.395204-44.766425 42.144392-21.999501a465.123158 465.123158 0 0 0 511.616287 14.964777 42.592056 42.592056 0 0 1 62.864852 8.569573c55.062703 58.324257 56.149888 57.237072 110.828878-1.662753z"  /></svg>