<?xml version="1.0" standalone="no"?><!DOCTYPE svg PUBLIC "-//W3C//DTD SVG 1.1//EN" "http://www.w3.org/Graphics/SVG/1.1/DTD/svg11.dtd"><svg class="icon" width="16px" height="16.00px" viewBox="0 0 1024 1024" version="1.1" xmlns="http://www.w3.org/2000/svg"><path fill="#A0A8B5" d="M919.591153 224.811696L841.284518 129.871298l-66.982881-76.771211a146.441085 146.441085 0 0 0-112.405848-53.036111H212.848182A151.239285 151.239285 0 0 0 63.976009 153.606398V870.457578A151.239285 151.239285 0 0 0 212.848182 1024h597.91978A151.239285 151.239285 0 0 0 959.640135 870.457578V326.661502a154.246158 154.246158 0 0 0-40.048982-101.849806z m-210.481069 93.085093a60.777209 60.777209 0 0 1-59.817569-61.672873V71.205298l223.916032 246.627515zM685.566912 541.301012l-176.445832 207.410221a54.763464 54.763464 0 0 1-41.328502 19.192803 56.362864 56.362864 0 0 1-41.968262-17.46545l-95.964014-103.705111a50.093215 50.093215 0 0 1 7.997002-68.838186 56.490816 56.490816 0 0 1 72.676746 0l53.100087 57.578408 137.100587-159.300262A55.019368 55.019368 0 0 1 653.195052 448.215919a54.059728 54.059728 0 0 1 47.470199 35.058853 50.221167 50.221167 0 0 1-15.354243 55.339248z" /></svg>