<?xml version="1.0" standalone="no"?><!DOCTYPE svg PUBLIC "-//W3C//DTD SVG 1.1//EN" "http://www.w3.org/Graphics/SVG/1.1/DTD/svg11.dtd"><svg class="icon" width="16px" height="16.00px" viewBox="0 0 1024 1024" version="1.1" xmlns="http://www.w3.org/2000/svg"><path fill="#A0A8B5" d="M429.312 896.064H95.936a93.376 93.376 0 0 1-96-90.304v-30.144a393.92 393.92 0 0 1 283.2-371.2 224 224 0 1 1 265.6 0 422.848 422.848 0 0 1 117.568 58.432 352.448 352.448 0 0 0-236.8 433.024zM976.192 988.032c30.592-32.896 30.848-33.216-1.792-64.832a17.472 17.472 0 0 1-3.648-26.624 254.464 254.464 0 0 0-180.416-382.912c-4.48 0-10.88-5.888-11.968 4.16a266.304 266.304 0 0 1 142.4 209.344 196.032 196.032 0 0 1-9.408 99.776c-8.704 22.976-9.6 23.296-26.24 6.4-38.4-38.4-76.8-76.8-114.368-115.648-11.584-11.84-31.616-21.632-32-36.672s19.2-25.6 30.464-37.952c27.648-30.784 27.648-30.4-0.704-59.456-7.168-7.36-12.16-9.6-21.376-2.56a63.296 63.296 0 0 1-52.928 11.776 24.32 24.32 0 0 0-25.6 9.664c-26.112 28.736-52.736 57.024-79.296 85.376-33.088 35.328-33.216 35.328 1.408 70.4 11.776 11.84 22.784 30.912 36.096 32.832 14.336 2.112 23.36-20.48 35.712-31.296a8.704 8.704 0 0 0 1.344-1.472c6.4-9.024 11.904-6.784 19.2 0q70.4 70.4 141.632 139.328c9.28 9.024 10.368 13.632-2.816 19.2a215.616 215.616 0 0 1-74.944 18.368 242.752 242.752 0 0 1-169.152-64.64c-4.224-3.52-8.832-12.352-14.272-7.936a130.624 130.624 0 0 0-31.68 33.024c-5.632 9.728 8.192 16.64 13.824 24.192 14.016 18.816 14.464 18.496-6.912 27.008a39.552 39.552 0 0 0 12.8 76.8 38.4 38.4 0 0 0 36.736-35.84c3.328-23.936 3.328-24 22.528-11.712a248.256 248.256 0 0 0 273.152 8 22.72 22.72 0 0 1 33.536 4.608c29.376 31.104 29.952 30.528 59.136-0.896z" /></svg>