<?xml version="1.0" standalone="no"?><!DOCTYPE svg PUBLIC "-//W3C//DTD SVG 1.1//EN" "http://www.w3.org/Graphics/SVG/1.1/DTD/svg11.dtd"><svg t="1610591241601" class="icon" viewBox="0 0 1024 1024" version="1.1" xmlns="http://www.w3.org/2000/svg" p-id="55368" xmlns:xlink="http://www.w3.org/1999/xlink" width="200" height="200"><defs><style type="text/css"></style></defs><path d="M509.97 0C228.28 0 0 227.505 0 508.204c0 280.717 228.281 508.222 509.97 508.222 281.67 0 509.97-227.505 509.97-508.222C1019.94 227.504 791.657 0 509.97 0z m208.472 303.334a35.663 35.663 0 0 1 50.6 0.105 35.663 35.663 0 0 1 0.088 50.53L411.065 711.892l-0.406 0.406c-2.383 2.578-5.279 4.767-8.474 6.638a35.946 35.946 0 0 1-48.905-13.4L244.93 516.449a35.593 35.593 0 0 1 13.348-48.728 35.84 35.84 0 0 1 48.904 13.294l85.063 148.392 326.197-326.073z" fill="#52C41A" p-id="55369"></path></svg>