<svg xmlns="http://www.w3.org/2000/svg" xmlns:xlink="http://www.w3.org/1999/xlink" width="20" height="20" viewBox="0 0 20 20"><defs><style>.a{fill:#3083f2;}.b{clip-path:url(#a);}</style><clipPath id="a"><rect class="a" width="20" height="20" transform="translate(537 566)"/></clipPath></defs><g class="b" transform="translate(-537 -566)"><path class="a" d="M5713.029,5346c-1.493,0-3.743-1.231-5.6-3.064a10.168,10.168,0,0,1-3.379-6.774c-.1-2.738-.022-5.889-.021-5.918a1.327,1.327,0,0,1,1.133-1.238,12.729,12.729,0,0,0,3.592-.874,8.724,8.724,0,0,0,3.32-1.825,1.441,1.441,0,0,1,.917-.307,1.485,1.485,0,0,1,.85.255,13.81,13.81,0,0,0,3.289,1.857,27.332,27.332,0,0,0,3.684.832,1.428,1.428,0,0,1,1.143,1.3c0,.021.13,2.281-.065,5.991a11.863,11.863,0,0,1-3.625,7.268A8.358,8.358,0,0,1,5713.029,5346Zm-4-11a1.024,1.024,0,0,0-.729,1.751l2.967,2.954a1.033,1.033,0,0,0,1.457,0l4.973-4.95a1.021,1.021,0,0,0,0-1.449,1.034,1.034,0,0,0-1.458,0l-4.242,4.224-2.239-2.229A1.028,1.028,0,0,0,5709.03,5334.995Z" transform="translate(-5166 -4760)"/></g></svg>