<svg xmlns="http://www.w3.org/2000/svg" xmlns:xlink="http://www.w3.org/1999/xlink" width="28" height="28" viewBox="0 0 28 28"><defs><style>.a{fill:#ffb9b9;}.b{clip-path:url(#a);}.c{fill:#71bdff;}.d{fill:#3e3e3e;}</style><clipPath id="a"><rect class="a" width="28" height="28" transform="translate(70 629)"/></clipPath></defs><g class="b" transform="translate(-70 -629)"><g transform="translate(7 597)"><path class="c" d="M206,170.267l4.011,3.418a1.867,1.867,0,0,1,.656,1.421V182.4H206ZM193.867,160h8.4a1.867,1.867,0,0,1,1.867,1.867V182.4H192V161.867A1.867,1.867,0,0,1,193.867,160Z" transform="translate(-124.267 -124.267)"/><path class="d" d="M79.867,38.533V33.867H67.733V58.133H79.867Zm1.867,1.659,5.907,5.25a1.867,1.867,0,0,1,.626,1.4v11.3H89.2A.933.933,0,1,1,89.2,60H64.933a.933.933,0,1,1,0-1.867h.933V33.867A1.867,1.867,0,0,1,67.733,32H79.867a1.867,1.867,0,0,1,1.867,1.867Zm0,17.941H86.4v-11.3L81.733,42.69Zm-11.2-18.667h6.533a.933.933,0,1,1,0,1.867H70.533a.933.933,0,1,1,0-1.867Zm0,5.6h6.533a.933.933,0,1,1,0,1.867H70.533a.933.933,0,1,1,0-1.867Zm0,5.6h6.533a.933.933,0,1,1,0,1.867H70.533a.933.933,0,1,1,0-1.867Z"/></g></g></svg>