<svg xmlns="http://www.w3.org/2000/svg" xmlns:xlink="http://www.w3.org/1999/xlink" width="28" height="28" viewBox="0 0 28 28"><defs><style>.a{fill:#ffb9b9;}.b{clip-path:url(#a);}.c{fill:#71bdff;}.d{fill:#3e3e3e;}</style><clipPath id="a"><rect class="a" width="28" height="28" transform="translate(70 629)"/></clipPath></defs><g class="b" transform="translate(-70 -629)"><g transform="translate(-10.465 599.693)"><path class="c" d="M100.617,189.5l11.552,6.828a.932.932,0,0,1,0,1.605l-11.552,6.828a.932.932,0,0,1-.945,0l-11.657-6.829a.932.932,0,0,1,0-1.608L99.67,189.5a.932.932,0,0,1,.945,0Z" transform="translate(-4.942 -155.405)"/><path class="c" d="M100.617,413.5l11.552,6.828a.932.932,0,0,1,0,1.605l-11.552,6.828a.932.932,0,0,1-.945,0l-11.657-6.829a.932.932,0,0,1,0-1.608L99.67,413.5a.932.932,0,0,1,.945,0Z" transform="translate(-4.942 -372.88)"/><path class="d" d="M107.664,37.539a.932.932,0,0,1-.333.333L95.673,44.7a.932.932,0,0,1-.941,0l-11.659-6.83a.932.932,0,0,1,0-1.608l11.658-6.83a.932.932,0,0,1,.942,0l11.658,6.83A.932.932,0,0,1,107.664,37.539ZM95.2,31.319l-9.812,5.749L95.2,42.817l9.811-5.748L95.2,31.319ZM107.7,40.57v2.394a.932.932,0,0,1-.463.805L95.4,50.655a.932.932,0,0,1-.946,0L82.918,43.77a.932.932,0,0,1-.454-.8v-2.4h1.864v1.87l10.608,6.327,10.895-6.339V40.57h1.864Zm0,6.525v2.394a.932.932,0,0,1-.463.805L95.4,57.18a.932.932,0,0,1-.946,0L82.918,50.3a.932.932,0,0,1-.454-.8V47.1h1.864v1.87l10.608,6.327,10.895-6.339V47.1h1.864Z"/></g></g></svg>