<svg xmlns="http://www.w3.org/2000/svg" xmlns:xlink="http://www.w3.org/1999/xlink" width="28" height="28" viewBox="0 0 28 28"><defs><style>.a{fill:#ffb9b9;}.b{clip-path:url(#a);}.c{fill:#71bdff;}.d{fill:#3e3e3e;}</style><clipPath id="a"><rect class="a" width="28" height="28" transform="translate(70 629)"/></clipPath></defs><g class="b" transform="translate(-70 -629)"><path class="c" d="M22.75,40.727a4.933,4.933,0,0,1-5.687-1.873,4.919,4.919,0,0,1-8.125,0A4.933,4.933,0,0,1,3.25,40.727V53.091c0,.77.408,1.309.7,1.309H22.054c.288,0,.7-.539.7-1.309Z" transform="translate(71 601)"/><path class="c" d="M23.072,33.6H2.928q-1.3,5.123-1.3,5.6c0,1.412.939,1.658,2.312,2.065s2.855.88,3.647-.3c.3-.446.809-1.714,1.353-1.714s1.052,1.268,1.353,1.714c.6.9,1.62.433,2.71.432s2.108.463,2.71-.432c.3-.446.809-1.714,1.353-1.714s1.052,1.268,1.353,1.714c.792,1.177,2.274.7,3.647.3s2.313-.653,2.312-2.065Q24.375,38.722,23.072,33.6Z" transform="translate(71 601)"/><path class="d" d="M24.3,42.842a.707.707,0,0,1,.073.314v9.891c0,1.579-.943,2.954-2.321,2.954H3.946c-1.378,0-2.321-1.374-2.321-2.954V43.155a.7.7,0,0,1,.073-.314A4.758,4.758,0,0,1,0,39.2a49.359,49.359,0,0,1,1.342-5.947A1.62,1.62,0,0,1,2.928,32H23.072a1.62,1.62,0,0,1,1.586,1.253A49.535,49.535,0,0,1,26,39.2,4.76,4.76,0,0,1,24.3,42.842Zm-1.552.886a4.933,4.933,0,0,1-5.687-1.873,4.919,4.919,0,0,1-8.125,0A4.933,4.933,0,0,1,3.25,43.727v9.364c0,.77.408,1.309.7,1.309H22.054c.288,0,.7-.539.7-1.309ZM23.072,33.6H2.928q-1.3,5.123-1.3,5.6a3.207,3.207,0,0,0,2.312,3.065,3.276,3.276,0,0,0,3.647-1.3,1.639,1.639,0,0,1,2.706,0,3.28,3.28,0,0,0,5.419,0,1.639,1.639,0,0,1,2.706,0,3.276,3.276,0,0,0,3.647,1.3A3.207,3.207,0,0,0,24.375,39.2Q24.375,38.722,23.072,33.6ZM7.312,47.2a.806.806,0,0,1,.812.8v2.4a.813.813,0,0,1-1.625,0V48A.806.806,0,0,1,7.312,47.2Z" transform="translate(71 599)"/></g></svg>