<svg xmlns="http://www.w3.org/2000/svg" xmlns:xlink="http://www.w3.org/1999/xlink" width="28" height="28" viewBox="0 0 28 28"><defs><style>.a{fill:#ffb9b9;}.b{clip-path:url(#a);}.c{fill:#ccc;}.d{fill:#3e3e3e;}</style><clipPath id="a"><rect class="a" width="28" height="28" transform="translate(66 629)"/></clipPath></defs><g class="b" transform="translate(-66 -629)"><g transform="translate(2 511)"><ellipse class="c" cx="5" cy="4" rx="5" ry="4" transform="translate(73 125)"/><ellipse class="c" cx="5" cy="4" rx="5" ry="4" transform="translate(66 135)"/><ellipse class="c" cx="5" cy="4" rx="5" ry="4" transform="translate(80 135)"/><path class="d" d="M85,130.5a6.947,6.947,0,0,0-1.028.1,7,7,0,1,0-11.944,0,7.038,7.038,0,1,0,4.944,3.294,5.177,5.177,0,0,0,2.056,0A6.981,6.981,0,1,0,85,130.5ZM71,142.75a5.25,5.25,0,1,1,5.25-5.25A5.257,5.257,0,0,1,71,142.75ZM72.75,127A5.25,5.25,0,1,1,78,132.25,5.257,5.257,0,0,1,72.75,127ZM85,142.75a5.25,5.25,0,1,1,5.25-5.25A5.257,5.257,0,0,1,85,142.75Z"/><path class="d" d="M212.794,233.049a3.5,3.5,0,0,0-4.947,0,.875.875,0,0,0,1.238,1.238,1.754,1.754,0,0,1,2.475,0,.874.874,0,1,0,1.234-1.238Zm-7,14.213a.877.877,0,0,0-1.238,0,1.754,1.754,0,0,1-2.475,0,.875.875,0,0,0-1.238,1.237,3.5,3.5,0,0,0,4.947,0A.874.874,0,0,0,205.794,247.262Zm14,0a.877.877,0,0,0-1.238,0,1.754,1.754,0,0,1-2.475,0,.875.875,0,0,0-1.238,1.237,3.5,3.5,0,0,0,4.947,0A.874.874,0,0,0,219.794,247.262Z" transform="translate(-132.319 -108.524)"/></g></g></svg>