<svg xmlns="http://www.w3.org/2000/svg" xmlns:xlink="http://www.w3.org/1999/xlink" width="28" height="28" viewBox="0 0 28 28"><defs><style>.a,.e,.f{fill:none;}.b{clip-path:url(#a);}.c,.d{fill:#71bdff;}.c{stroke:#71bdff;}.c,.e,.f{stroke-linecap:round;stroke-width:2px;}.c,.e{stroke-linejoin:round;}.e,.f{stroke:#3e3e3e;}.g{fill:#fff;}</style><clipPath id="a"><rect class="a" width="28" height="28" transform="translate(70 629)"/></clipPath></defs><g class="b" transform="translate(-70 -629)"><g transform="translate(1.182 591.932)"><rect class="c" width="4" height="8" transform="translate(89.818 56.068)"/><path class="c" d="M1-3.111,8-7l7,3.889V7.333H1Z" transform="translate(72.818 56.068)"/><path class="d" d="M5.523,113a.708.708,0,0,0,.457-.176l1.936-1.7a1.732,1.732,0,0,0,.529-1.83q-.025-.081-.058-.159a1.727,1.727,0,0,0-1.417-1.047,1.748,1.748,0,0,0-.177-.009,1.728,1.728,0,0,0-.345.035q-.084.017-.166.043t-.161.059q-.079.033-.155.075a1.726,1.726,0,0,0-.412.313l-.031.032-.031-.032a1.729,1.729,0,0,0-1.24-.524,1.743,1.743,0,0,0-.177.009,1.717,1.717,0,0,0-.647.2q-.073.04-.143.087t-.133.1q-.064.053-.123.112a1.734,1.734,0,0,0-.211.256q-.047.069-.087.143t-.073.151a1.707,1.707,0,0,0-.1.324,1.728,1.728,0,0,0-.026.172,1.757,1.757,0,0,0-.009.177,1.726,1.726,0,0,0,.245.888,1.723,1.723,0,0,0,.362.428l1.936,1.7a.717.717,0,0,0,.077.059.709.709,0,0,0,.381.118Z" transform="translate(70.295 -71.012)"/><path class="e" d="M1-3l9-5,9,5V12H1Z" transform="translate(70.818 52.068)"/><path class="e" d="M1,2.111,12-4,23,2.111" transform="translate(68.818 48.068)"/><line class="f" y2="4" transform="translate(74.318 43.568)"/><path class="e" d="M4,0H6V11H0" transform="translate(89.818 53.068)"/><path class="g" d="M5.523,113a.708.708,0,0,0,.457-.176l1.936-1.7a1.732,1.732,0,0,0,.529-1.83q-.025-.081-.058-.159a1.727,1.727,0,0,0-1.417-1.047,1.748,1.748,0,0,0-.177-.009,1.728,1.728,0,0,0-.345.035q-.084.017-.166.043t-.161.059q-.079.033-.155.075a1.726,1.726,0,0,0-.412.313l-.031.032-.031-.032a1.729,1.729,0,0,0-1.24-.524,1.743,1.743,0,0,0-.177.009,1.717,1.717,0,0,0-.647.2q-.073.04-.143.087t-.133.1q-.064.053-.123.112a1.734,1.734,0,0,0-.211.256q-.047.069-.087.143t-.073.151a1.707,1.707,0,0,0-.1.324,1.728,1.728,0,0,0-.026.172,1.757,1.757,0,0,0-.009.177,1.726,1.726,0,0,0,.245.888,1.723,1.723,0,0,0,.362.428l1.936,1.7a.717.717,0,0,0,.077.059.709.709,0,0,0,.381.118Z" transform="translate(75.295 -53.012)"/></g></g></svg>