<svg xmlns="http://www.w3.org/2000/svg" width="150" height="40" viewBox="0 0 150 40"><defs><style>.a{fill:none;}.b{fill:#1062cf;}</style></defs><rect class="a" width="150" height="40"/><g transform="translate(71.615)"><path class="b" d="M222.452,38.475a19.44,19.44,0,0,0-6.663,7.932,1.143,1.143,0,1,0,2.074.96,15.649,15.649,0,0,1,28.928,0,1.143,1.143,0,0,0,2.074-.96,19.441,19.441,0,0,0-6.663-7.931,17.422,17.422,0,0,0-19.75,0" transform="translate(-200.434 -35.406)"/><path class="b" d="M246.757,99.2a15.665,15.665,0,0,1-29.122.017,1.143,1.143,0,1,0-2.086.935,19.461,19.461,0,0,0,6.667,8.093,17.427,17.427,0,0,0,19.96-.006,19.464,19.464,0,0,0,6.667-8.107,1.143,1.143,0,1,0-2.087-.932" transform="translate(-200.3 -71.796)"/><g transform="translate(0 14.47)"><path class="b" d="M187.926,76.689a3.374,3.374,0,0,1-2.859,1.563,3.313,3.313,0,1,1,0-6.625,3.374,3.374,0,0,1,2.91,1.646l1.565-1A5.34,5.34,0,0,0,185,69.768a5.241,5.241,0,1,0,0,10.481,5.339,5.339,0,0,0,4.567-2.544Z" transform="translate(-179.673 -69.688)"/><path class="b" d="M209.694,69.578a5.275,5.275,0,1,0,5.275,5.275,5.275,5.275,0,0,0-5.275-5.275m0,8.608a3.333,3.333,0,1,1,3.333-3.333,3.333,3.333,0,0,1-3.333,3.333" transform="translate(-193.94 -69.578)"/><path class="b" d="M285.79,69.578a5.275,5.275,0,1,0,5.275,5.275,5.275,5.275,0,0,0-5.275-5.275m0,8.608a3.333,3.333,0,1,1,3.332-3.333,3.333,3.333,0,0,1-3.332,3.333" transform="translate(-237.813 -69.578)"/><path class="b" d="M231.581,76.9s-.99,1.257-1.257,1.638a5.937,5.937,0,0,0,4.3,1.637c3.5,0,4.114-2.209,4.114-3.2,0-3.656-5.79-2.781-5.79-4.38,0-1.219,2.362-1.448,4.228.038.3-.381,1.333-1.562,1.333-1.562a5.651,5.651,0,0,0-3.885-1.409c-3.161,0-4,1.942-4,3.237,0,3.276,5.866,2.742,5.866,4.228,0,.758-.842,1.1-1.752,1.1a4.949,4.949,0,0,1-3.162-1.334" transform="translate(-208.876 -69.63)"/><path class="b" d="M254.725,72.88l2.763,4.475h.934l2.724-4.475V80.2h2.218V69.845h-2.918l-2.452,4.125-2.529-4.125h-2.919V80.2h2.141Z" transform="translate(-221.687 -69.732)"/><path class="b" d="M315.059,69.821h-4.413V80.268h1.267v-3.68h3.146a3.384,3.384,0,1,0,0-6.767m2.157,3.384a2.2,2.2,0,0,1-2.2,2.2h-3.107V71.008h3.107a2.2,2.2,0,0,1,2.2,2.2" transform="translate(-255.185 -69.718)"/><rect class="b" width="1.306" height="10.447" transform="translate(64.115 0.08)"/><path class="b" d="M343.244,76.2v.99a3.866,3.866,0,1,0,0,5.581v.971h1.3V76.2Zm-2.652,6.371a2.59,2.59,0,1,1,2.614-2.59,2.6,2.6,0,0,1-2.614,2.59" transform="translate(-270.207 -73.345)"/><path class="b" d="M361.1,74.916v-1.1h-1.448V71.755h-1.257v7.77a1.62,1.62,0,0,0,1.3,1.752H361.1V80.134h-.686c-.381,0-.762-.19-.762-.609V74.916Z" transform="translate(-282.714 -70.833)"/></g></g><g transform="translate(0 9.258)"><path class="b" d="M21.24,62.5h7.9a.88.88,0,0,0,.88-.88V60.138H21.24V57.27H18.6v7.89H10.552v1.5a.88.88,0,0,0,.88.88H30.4a.88.88,0,0,0,.88-.88v-1.5H21.24Z" transform="translate(-10.552 -57.27)"/><path class="b" d="M32.2,83.234H29.566v9.913H32.2V88.625h7.3a.88.88,0,0,0,.88-.88v-1.5H32.2Z" transform="translate(-21.514 -72.239)"/><path class="b" d="M67.383,70.472a1.1,1.1,0,0,0,.074-.3V61.733a.577.577,0,0,1,.449-.449h12.3a.827.827,0,0,1,.449.449s.039,8.649.077,8.738h2.454a1.086,1.086,0,0,0,.074-.3v-9.34q0-2.065-2.155-2.066H75.738v-1.5H72.5v1.5H66.918q-2.067,0-2.066,1.976v9.43a1.03,1.03,0,0,0,.077.3Z" transform="translate(-41.858 -57.27)"/><path class="b" d="M147.727,64.234V60.482l4.747,0a.847.847,0,0,0,.846-.847V58.027l-6.819,0a1.226,1.226,0,0,0-1.225,1.226V75.636c-.017.439-.437.675-1.209.686v2.452a3.789,3.789,0,0,0,2.8-1.044,3.1,3.1,0,0,0,.86-2.095v-9.15h1.449V78.7h2.639V66.485h.744a.855.855,0,0,0,.88-.827V64.234Z" transform="translate(-87.53 -57.706)"/><path class="b" d="M125.905,57.27h-2.7v1.893h-4.055V57.27h-2.7v1.893h-.991V60.7a.88.88,0,0,0,.88.88l.111.111v8.912h-1.352V72.16a.88.88,0,0,0,.88.88h10.135a.88.88,0,0,0,.88-.88V70.608h-1.081V61.6h.382a.88.88,0,0,0,.88-.88V59.163h-1.262ZM123.2,70.22a.387.387,0,0,1-.387.387h-3.281a.387.387,0,0,1-.387-.387v-.848a.388.388,0,0,1,.387-.387h3.281a.387.387,0,0,1,.387.387Zm0-3.7a.387.387,0,0,1-.387.387h-3.281a.387.387,0,0,1-.387-.387v-.847a.388.388,0,0,1,.387-.387h3.281a.387.387,0,0,1,.387.387Zm0-3.695a.387.387,0,0,1-.387.387h-3.281a.387.387,0,0,1-.387-.387v-.848a.388.388,0,0,1,.387-.388h3.281a.387.387,0,0,1,.387.388Z" transform="translate(-70.823 -57.27)"/><path class="b" d="M84.789,71.832V70.639H80.3V67.485h-2.65v3.154H73.164v1.192a.88.88,0,0,0,.88.88h1.522a1.643,1.643,0,0,1-.406.96,1.694,1.694,0,0,1-1.25.407v2.043a3.632,3.632,0,0,0,2.732-1.043,3.732,3.732,0,0,0,.973-2.367h.033l-.016,3.154H80.3V72.712h.047a3.4,3.4,0,0,0,2.816,3.33,5.039,5.039,0,0,0,.761.066c.054,0,.108,0,.157-.005l-.136-2.038a3.016,3.016,0,0,1-.4-.031,1.351,1.351,0,0,1-1.149-1.323h1.521A.88.88,0,0,0,84.789,71.832Z" transform="translate(-46.651 -63.159)"/><path class="b" d="M74.145,88.243H71.208v.943H62.524v1.463a.88.88,0,0,0,.88.88h6.742c-.908.915-2.984,2.166-7.565,2.2l.016,2.452c3.776-.025,6.673-.8,8.61-2.3a6.067,6.067,0,0,0,1.65-1.895,6.067,6.067,0,0,0,1.65,1.895c1.937,1.5,4.834,2.279,8.61,2.3l.016-2.452c-4.582-.03-6.658-1.281-7.565-2.2h6.713a.88.88,0,0,0,.88-.88V89.186H74.145Z" transform="translate(-40.516 -75.127)"/><path class="b" d="M118.773,97.819a2.378,2.378,0,0,1-1.76.583v2.451a4.7,4.7,0,0,0,3.539-1.347,4.853,4.853,0,0,0,1.262-3.188h-2.454A2.391,2.391,0,0,1,118.773,97.819Z" transform="translate(-71.932 -79.783)"/><path class="b" d="M75.908,68.7a2.564,2.564,0,0,0,.75,2.2h2.107c-.907-.513-.935-1.991-.907-2.2Z" transform="translate(-48.224 -63.862)"/><path class="b" d="M90.9,70.9H93a2.564,2.564,0,0,0,.75-2.2H91.8C91.83,68.911,91.8,70.389,90.9,70.9Z" transform="translate(-56.873 -63.862)"/><path class="b" d="M134.035,96.325h-2.451a4.412,4.412,0,0,0,3.641,4.429,6.65,6.65,0,0,0,.993.086h0V98.387a4.229,4.229,0,0,1-.54-.043A1.977,1.977,0,0,1,134.035,96.325Z" transform="translate(-80.332 -79.787)"/></g></svg>