<?xml version="1.0" standalone="no"?><!DOCTYPE svg PUBLIC "-//W3C//DTD SVG 1.1//EN" "http://www.w3.org/Graphics/SVG/1.1/DTD/svg11.dtd"><svg t="1610591176315" class="icon" viewBox="0 0 1024 1024" version="1.1" xmlns="http://www.w3.org/2000/svg" p-id="54129" xmlns:xlink="http://www.w3.org/1999/xlink" width="200" height="200"><defs><style type="text/css"></style></defs><path d="M512 972.8c256-6.4 454.4-211.2 448-467.2-6.4-256-211.2-454.4-467.2-448-249.6 6.4-448 211.2-448 460.8C44.8 768 256 972.8 512 972.8zM307.2 486.4h307.2L499.2 364.8c-12.8-12.8-12.8-32 0-38.4 12.8-12.8 32-12.8 38.4 0L704 486.4c12.8 12.8 12.8 32 0 51.2l-166.4 160c-12.8 12.8-32 12.8-38.4 0-12.8-12.8-12.8-32 0-38.4l121.6-115.2H307.2c-12.8-6.4-25.6-19.2-25.6-32s12.8-32 25.6-25.6z" fill="#1296db" p-id="54130" data-spm-anchor-id="a313x.7781069.0.i3" class="selected"></path></svg>