<svg xmlns="http://www.w3.org/2000/svg" width="40" height="40" viewBox="0 0 40 40"><defs><style>.a{fill:#080843;stroke:#131d81;stroke-linecap:round;stroke-linejoin:bevel;opacity:0.8;}.b{fill:#3083f2;}.c{stroke:none;}.d{fill:none;}</style></defs><g transform="translate(0 -0.4)"><g class="a" transform="translate(3 3.4)"><rect class="c" width="34" height="34"/><rect class="d" x="0.5" y="0.5" width="33" height="33"/></g><g transform="translate(0 32.4)"><path class="b" d="M0,8V0H1V7H8V8H1V8Z" transform="translate(0)"/></g><g transform="translate(40 8.4) rotate(180)"><path class="b" d="M7291,3173v-8h1v7h7v1Z" transform="translate(-7291 -3165)"/></g><g transform="translate(32 40.4) rotate(-90)"><path class="b" d="M7291,3173v-8h1v7h7v1Z" transform="translate(-7291 -3165)"/></g><g transform="translate(8 0.4) rotate(90)"><path class="b" d="M7291,3173v-8h1v7h7v1Z" transform="translate(-7291 -3165)"/></g></g></svg>