<?xml version="1.0" standalone="no"?><!DOCTYPE svg PUBLIC "-//W3C//DTD SVG 1.1//EN" "http://www.w3.org/Graphics/SVG/1.1/DTD/svg11.dtd"><svg t="1608176761445" class="icon" viewBox="0 0 1024 1024" version="1.1" xmlns="http://www.w3.org/2000/svg" p-id="9906" width="60" height="60" xmlns:xlink="http://www.w3.org/1999/xlink"><defs><style type="text/css"></style></defs><path d="M512 512m-512 0a512 512 0 1 0 1024 0 512 512 0 1 0-1024 0Z" p-id="9907" data-spm-anchor-id="a313x.7781069.0.i35" class="selected" fill="#3283f2"></path><path d="M365.2608 570.6752c5.7344 3.2768 106.3424 61.3376 110.29504 63.5904 5.12 2.9696 6.46144 9.5232 1.024 11.9808-4.36224 2.048-92.06784 41.984-99.56352 45.3632a8.87808 8.87808 0 0 1-11.95008-6.8608c-0.63488-5.9392-9.99424-102.2976-10.52672-109.1584a6.47168 6.47168 0 0 1 10.72128-4.9152z" fill="#ffffff" p-id="9908" data-spm-anchor-id="a313x.7781069.0.i37" class=""></path><path d="M625.27488 247.808a71.68 71.68 0 0 1 26.23488 97.8944l-158.72 274.944-124.14976-71.68 158.72-274.944a71.68 71.68 0 0 1 97.91488-26.2144z" fill="#ffffff" p-id="9909" data-spm-anchor-id="a313x.7781069.0.i36" class=""></path><path d="M358.4 737.28m20.48 0l266.24 0q20.48 0 20.48 20.48l0 0q0 20.48-20.48 20.48l-266.24 0q-20.48 0-20.48-20.48l0 0q0-20.48 20.48-20.48Z" fill="#ffffff" p-id="9910" data-spm-anchor-id="a313x.7781069.0.i38" class=""></path></svg>