<?xml version="1.0" encoding="UTF-8"?>
<svg width="16px" height="16px" viewBox="0 0 16 16" version="1.1" xmlns="http://www.w3.org/2000/svg" xmlns:xlink="http://www.w3.org/1999/xlink">
    <title>大于等于5天</title>
    <g id="页面" stroke="none" stroke-width="1" fill="none" fill-rule="evenodd">
        <g id="综合网格管理系统" transform="translate(-373.000000, -143.000000)" fill-rule="nonzero">
            <g id="超期" transform="translate(373.000000, 143.000000)">
                <path d="M8.00001714,1.39315206e-06 C5.87642758,-0.00605927019 3.83805825,0.83483672 2.33644748,2.33644748 C0.83483672,3.83805825 -0.00605927019,5.87642758 1.39315202e-06,8.00001714 C1.39315202e-06,12.4365791 3.56345522,16.0000014 8.00001714,16.0000014 C12.4365791,16.0000014 16.0000014,12.4365791 16.0000014,8.00001714 C16.0000014,3.56345522 12.4365791,1.39315206e-06 8.00001714,1.39315206e-06 L8.00001714,1.39315206e-06 Z M8.00001714,12.2914365 C7.56344664,12.2914365 7.12687616,11.854866 7.12687616,11.4182955 C7.12687616,10.981725 7.56344666,10.5451545 8.00001714,10.5451545 C8.43658762,10.5451545 8.87315812,10.9085823 8.87315812,11.4182955 C8.87315812,11.854866 8.43658762,12.2914365 8.00001714,12.2914365 Z M8.72687273,8.94515797 C8.72687273,9.52801386 8.50973034,9.9634415 8.00001714,9.9634415 C7.4914468,9.9634415 7.27316156,9.526871 7.27316156,8.94630083 L6.98173361,4.7268813 C6.98173361,4.14516825 7.41830411,3.70974062 7.92687444,3.70974062 C8.43658762,3.70974062 8.94515797,4.14516827 8.94515797,4.7268813 L8.72801558,8.94515797 L8.72687273,8.94515797 Z" id="形状" fill="#FF2D0D"></path>
                <rect id="矩形" x="0" y="0" width="16" height="16"></rect>
            </g>
        </g>
    </g>
</svg>