<svg xmlns="http://www.w3.org/2000/svg" width="20" height="20" viewBox="0 0 20 20"><defs><style>.a,.c{fill:#fff;}.a{opacity:0;}.b{fill:#ffa80b;}</style></defs><g transform="translate(9368 -6558)"><rect class="a" width="20" height="20" transform="translate(-9368 6558)"/><g transform="translate(-9053.805 6917.2)"><g transform="translate(-313.218 -358.223)"><circle class="b" cx="8.938" cy="8.938" r="8.938" transform="translate(0 0)"/></g><g transform="translate(-308.331 -353.959)"><g transform="translate(0 0)"><path class="c" d="M-101.6-167.2l3.6-5.387a.456.456,0,0,0-.123-.646.349.349,0,0,0-.246-.092H-101.2v-3.386a.473.473,0,0,0-.462-.462.427.427,0,0,0-.369.215l-3.6,5.387a.456.456,0,0,0,.123.646.35.35,0,0,0,.246.092h2.832v3.386a.473.473,0,0,0,.462.462.427.427,0,0,0,.369-.215Zm0,0" transform="translate(105.714 177.174)"/></g></g></g></g></svg>