<svg xmlns="http://www.w3.org/2000/svg" xmlns:xlink="http://www.w3.org/1999/xlink" width="100" height="100" viewBox="0 0 100 100"><defs><style>.a{fill:#3ac7d8;}.b{fill:url(#a);}.c{clip-path:url(#c);}.d{fill:#e5e5e5;}.e{fill:url(#d);}.f{clip-path:url(#e);}.g{fill:url(#g);}.h{fill:url(#h);}.i{fill:#fff;}</style><linearGradient id="a" x1="0.322" y1="-0.068" x2="0.677" y2="1.09" gradientUnits="objectBoundingBox"><stop offset="0" stop-color="#f5f5f5"/><stop offset="1" stop-color="#e5e5e5" stop-opacity="0"/></linearGradient><linearGradient id="b" x1="0.322" y1="-0.068" x2="0.677" y2="1.09" gradientUnits="objectBoundingBox"><stop offset="0" stop-color="#ccf0ff"/><stop offset="1" stop-color="#ccf0ff" stop-opacity="0"/></linearGradient><clipPath id="c"><rect class="a" width="100" height="100"/></clipPath><linearGradient id="d" x1="0.438" y1="0.636" x2="0.56" y2="0.907" gradientUnits="objectBoundingBox"><stop offset="0" stop-color="#fff"/><stop offset="1" stop-color="#f5f5f5"/></linearGradient><clipPath id="e"><path class="b" d="M42-.494c4.619,0,10.5.191,10.5,0,0,6.881.319,11.881,4,15S75.437,23.472,82,29.018c0,10.337-15.549,12.488-40,12.488ZM2,29.018c6.563-5.546,21.82-11.394,25.5-14.513s4-8.119,4-15c0,.191,5.881,0,10.5,0v42C17.55,41.505,2,39.355,2,29.018Z" transform="translate(2)"/></clipPath><linearGradient id="g" x1="-0.208" y1="0.5" x2="1.264" y2="0.5" xlink:href="#d"/><linearGradient id="h" x1="1.208" y1="0.5" x2="-0.264" y2="0.5" xlink:href="#d"/></defs><g class="c"><rect class="d" width="100" height="100"/><g transform="translate(-2.46)"><path class="e" d="M44,61.7V99.5c-26.184,0-46-4.759-46-15.322C4.98,76.817,24.355,70.6,28.3,67.41c3.556-2.874,4.009-6.166,4.064-11.944-4.813-4.961-8.4-11.984-9.4-17.668-1.739-9.918-1.412-16.308,0-22.591S31.868,0,44.583,0,64.793,8.927,66.2,15.207s1.739,12.673,0,22.591c-1.074,6.127-5.163,13.811-10.547,18.789.112,5.093.727,8.14,4.047,10.822C63.645,70.6,83.021,76.817,90,84.173,90,94.736,70.184,99.5,44,99.5Z" transform="translate(8.46 14.999)"/><g class="f" transform="translate(8.46 68.494)"><path class="b" d="M59.069,78.233V94.591c0,9.53-10.8,10.194-15.172,10.194-10.061,0-27.675-10.651-34.9-26.552C9,78.114,44.9,78.233,59.069,78.233Z" transform="translate(15.276 -82.026)"/></g><path class="g" d="M10.047,1.053c0,2.737,3.555,15.59,3.555,15.59C8.1,18.619,5.552,9.276,5.552,5.609S7.934.133,10.047,1.053Z" transform="translate(20.659 42.357)"/><path class="h" d="M9.108,1.053c0,2.737-3.555,15.59-3.555,15.59,5.5,1.975,8.049-7.368,8.049-11.034S11.22.133,9.108,1.053Z" transform="translate(66.272 42.357)"/><path class="i" d="M22.807,0C35.521,0,43.016,8.926,44.428,15.207s1.739,12.673,0,22.59S33.053,61.711,22.807,61.711ZM1.185,37.8c-1.739-9.918-1.413-16.308,0-22.59S10.092,0,22.807,0V61.711C12.56,61.711,2.924,47.716,1.185,37.8Z" transform="translate(30.236 15)"/></g></g></svg>