<svg xmlns="http://www.w3.org/2000/svg" xmlns:xlink="http://www.w3.org/1999/xlink" width="224" height="200" viewBox="0 0 224 200"><defs><style>.a,.j,.n{fill:none;}.a{stroke:#707070;}.b{clip-path:url(#a);}.c{fill:url(#b);}.d{fill:#bbc8d5;}.e{fill:#d6e2ed;}.f{fill:#e4ebf2;}.g{fill:url(#c);}.h{fill:#fff;}.i{fill:#f5f7fc;}.j,.n{stroke:#9bbad8;stroke-linecap:round;}.j{stroke-dasharray:3 4;}.k,.p{fill:#9bbad8;}.l{fill:#cdd3df;}.m{fill:#909aa9;}.n{stroke-width:2px;}.o{fill:#e3e5ec;}.p{font-size:16px;font-family:AlibabaPuHuiTi-Regular, Alibaba PuHuiTi;letter-spacing:0.2em;}</style><clipPath id="a"><rect class="a" width="224" height="200" transform="translate(164 756)"/></clipPath><linearGradient id="b" x1="0.304" y1="-0.625" x2="0.5" y2="1.622" gradientUnits="objectBoundingBox"><stop offset="0" stop-color="#fff" stop-opacity="0"/><stop offset="1" stop-color="#b7cfe5"/></linearGradient><linearGradient id="c" x1="0.5" x2="0.5" y2="1" gradientUnits="objectBoundingBox"><stop offset="0" stop-color="#d5d5d5"/><stop offset="1" stop-color="#6b6b6b" stop-opacity="0.059"/></linearGradient></defs><g class="b" transform="translate(-164 -756)"><g transform="translate(164 756)"><g transform="translate(0 15.169)"><ellipse class="c" cx="112" cy="32" rx="112" ry="32" transform="translate(0 80.831)"/><g transform="translate(44.44 38.669) rotate(-25)"><rect class="d" width="78.824" height="101.057" rx="8" transform="translate(12.675 0)"/><path class="e" d="M4.042,0H72.761A4.042,4.042,0,0,1,76.8,4.042V97.015a4.042,4.042,0,0,1-4.042,4.042H4.042A4.042,4.042,0,0,1,0,97.015V4.042A4.042,4.042,0,0,1,4.042,0Z" transform="translate(12.675 0)"/><rect class="f" width="68.719" height="92.972" rx="4" transform="translate(16.717 4.042)"/><path class="g" d="M18.739,0H83.415a2.054,2.054,0,0,1,2.021,2.086C81.9,90.292,77.481,90.367,77.481,90.367a357.415,357.415,0,0,1-40.8-1.937A266.342,266.342,0,0,1,0,81.25s8.633-5.142,12.675-14.525S16.717,41.7,16.717,41.7V2.086A2.054,2.054,0,0,1,18.739,0Z" transform="translate(0 4.042)"/><path class="h" d="M18.19,0H82.867a2.021,2.021,0,0,1,2.021,2.021c-3.537,85.5-5.558,86.4-5.558,86.4S55.2,87.793,36.38,84.888A317.33,317.33,0,0,1,0,76.8,23.837,23.837,0,0,0,12.127,64.676c4.042-9.1,4.042-24.254,4.042-24.254V2.023A2.021,2.021,0,0,1,18.19,0Z" transform="translate(0.548 4.042)"/><rect class="i" width="20.212" height="20.212" rx="2" transform="translate(24.802 20.212)"/><rect class="i" width="24.254" height="8.084" rx="2" transform="translate(53.098 20.212)"/><rect class="i" width="24.254" height="8.084" rx="2" transform="translate(53.098 32.338)"/><path class="i" d="M.505,0S13.645,1.01,26.78,1.01,53.055,0,53.055,0L52.55,6.064S41.812,7.074,28.8,7.074,0,6.064,0,6.064Z" transform="translate(24.296 48.507)"/><path class="i" d="M1.263,0A140.868,140.868,0,0,0,21.475,1.39C34.609,1.547,53.308.632,53.308.632L52.3,7.706S34.357,8.843,21.475,8.843A97.418,97.418,0,0,1,0,6.695Z" transform="translate(23.539 57.982)"/><path class="i" d="M2.274,0a128.76,128.76,0,0,0,17.94,1.684c10.106.253,34.36-.674,34.36-.674L53.055,9.6s-19.412,1.39-32.843,1.01S0,8.084,0,8.084Z" transform="translate(20.759 68.719)"/></g></g><g transform="translate(40.366 21.895)"><path class="j" d="M-2532.579,98.022s-28.475,25.232-32.34,8.843,42.116-14.033-3.484,35.573" transform="translate(2692.036 -88)"/><path class="k" d="M2.84,1.28C5.076-.482,11.359-.034,11.359-.034s-1.065,2.39-1.846,4.779S9.344,8.293,8.235,9.525C5.4,12.661,0,12.512,0,12.512S.533,10.48,1.42,7.732.6,3.043,2.84,1.28Z" transform="translate(109.634 58.592)"/><path class="k" d="M2.283,1.219C4.081-.465,9.132-.036,9.132-.036S8.276,2.247,7.648,4.53,7.512,7.919,6.62,9.1C4.338,12.092,0,11.949,0,11.949s.428-1.94,1.141-4.566S.485,2.9,2.283,1.219Z" transform="translate(0 108.856)"/></g><g transform="translate(16.679)"><rect class="l" width="4.6" height="19.2" rx="1" transform="matrix(0.755, -0.656, 0.656, 0.755, 13.053, 5.423)"/><rect class="l" width="4.6" height="19.2" rx="1" transform="translate(103.489 2.806) rotate(15.009)"/><circle class="m" cx="0.9" cy="0.9" r="0.9" transform="translate(103.32 10.846)"/><path class="n" d="M-3331,1125.6c113.368,16.05,173.67-9.6,173.67-9.6" transform="translate(3331 -1116)"/><rect class="o" width="5.8" height="24" rx="1" transform="translate(98.52 1.218)"/><g transform="translate(8.961 2.668)"><circle class="m" cx="0.9" cy="0.9" r="0.9" transform="matrix(0.559, -0.829, 0.829, 0.559, 10.643, 7.379)"/><g transform="matrix(0.559, -0.829, 0.829, 0.559, 0, 5.99)"><rect class="o" width="5.8" height="24" rx="1"/></g></g></g></g><text class="p" transform="translate(276 953)"><tspan x="-36.288" y="0">暂无数据</tspan></text></g></svg>