<svg xmlns="http://www.w3.org/2000/svg" xmlns:xlink="http://www.w3.org/1999/xlink" width="137.001" height="64" viewBox="0 0 137.001 64"><defs><style>.a,.b,.g{fill:none;}.a{stroke:#0142d9;}.c{opacity:0.6;clip-path:url(#c);}.d{opacity:0.7;clip-path:url(#d);}.e{fill:#21286e;stroke:#242c78;opacity:0.76;}.f{fill:#272ba8;}.g{stroke:#2535cb;opacity:0.8;}.h{fill:#3083f2;}.i{stroke:none;}.j{filter:url(#e);}.k{filter:url(#a);}</style><filter id="a" x="-3" y="2" width="143" height="65" filterUnits="userSpaceOnUse"><feOffset input="SourceAlpha"/><feGaussianBlur stdDeviation="1" result="b"/><feFlood flood-color="#0142d9"/><feComposite operator="in" in2="b"/><feComposite in="SourceGraphic"/></filter><clipPath id="c"><g class="k" transform="matrix(1, 0, 0, 1, 0, 0)"><rect class="a" width="137" height="59"/></g></clipPath><clipPath id="d"><rect class="b" width="131" height="53"/></clipPath><filter id="e" x="-3" y="2" width="143" height="65" filterUnits="userSpaceOnUse"><feOffset input="SourceAlpha"/><feGaussianBlur stdDeviation="1.5" result="f"/><feFlood flood-color="#2535cb"/><feComposite operator="in" in2="f"/><feComposite in="SourceGraphic"/></filter></defs><g transform="translate(0)"><g class="c" transform="translate(0 5)"><g class="d" transform="translate(3 3)"><g transform="translate(-83 -191)"><g class="e" transform="translate(83 191)"><rect class="i" width="14" height="14"/><rect class="b" x="0.5" y="0.5" width="13" height="13"/></g><rect class="f" width="1" height="1" transform="translate(83 191)"/></g><g transform="translate(-70 -191)"><g class="e" transform="translate(83 191)"><rect class="i" width="14" height="14"/><rect class="b" x="0.5" y="0.5" width="13" height="13"/></g><rect class="f" width="1" height="1" transform="translate(83 191)"/></g><g transform="translate(-57 -191)"><g class="e" transform="translate(83 191)"><rect class="i" width="14" height="14"/><rect class="b" x="0.5" y="0.5" width="13" height="13"/></g><rect class="f" width="1" height="1" transform="translate(83 191)"/></g><g transform="translate(-44 -191)"><g class="e" transform="translate(83 191)"><rect class="i" width="14" height="14"/><rect class="b" x="0.5" y="0.5" width="13" height="13"/></g><rect class="f" width="1" height="1" transform="translate(83 191)"/></g><g transform="translate(-31 -191)"><g class="e" transform="translate(83 191)"><rect class="i" width="14" height="14"/><rect class="b" x="0.5" y="0.5" width="13" height="13"/></g><rect class="f" width="1" height="1" transform="translate(83 191)"/></g><g transform="translate(-18 -191)"><g class="e" transform="translate(83 191)"><rect class="i" width="14" height="14"/><rect class="b" x="0.5" y="0.5" width="13" height="13"/></g><rect class="f" width="1" height="1" transform="translate(83 191)"/></g><g transform="translate(-5 -191)"><g class="e" transform="translate(83 191)"><rect class="i" width="14" height="14"/><rect class="b" x="0.5" y="0.5" width="13" height="13"/></g><rect class="f" width="1" height="1" transform="translate(83 191)"/></g><g transform="translate(8 -191)"><g class="e" transform="translate(83 191)"><rect class="i" width="14" height="14"/><rect class="b" x="0.5" y="0.5" width="13" height="13"/></g><rect class="f" width="1" height="1" transform="translate(83 191)"/></g><g transform="translate(21 -191)"><g class="e" transform="translate(83 191)"><rect class="i" width="14" height="14"/><rect class="b" x="0.5" y="0.5" width="13" height="13"/></g><rect class="f" width="1" height="1" transform="translate(83 191)"/></g><g transform="translate(34 -191)"><g class="e" transform="translate(83 191)"><rect class="i" width="14" height="14"/><rect class="b" x="0.5" y="0.5" width="13" height="13"/></g><rect class="f" width="1" height="1" transform="translate(83 191)"/></g><g transform="translate(47 -191)"><g class="e" transform="translate(83 191)"><rect class="i" width="14" height="14"/><rect class="b" x="0.5" y="0.5" width="13" height="13"/></g><rect class="f" width="1" height="1" transform="translate(83 191)"/></g><g transform="translate(-83 -178)"><g class="e" transform="translate(83 191)"><rect class="i" width="14" height="14"/><rect class="b" x="0.5" y="0.5" width="13" height="13"/></g><rect class="f" width="1" height="1" transform="translate(83 191)"/></g><g transform="translate(-70 -178)"><g class="e" transform="translate(83 191)"><rect class="i" width="14" height="14"/><rect class="b" x="0.5" y="0.5" width="13" height="13"/></g><rect class="f" width="1" height="1" transform="translate(83 191)"/></g><g transform="translate(-57 -178)"><g class="e" transform="translate(83 191)"><rect class="i" width="14" height="14"/><rect class="b" x="0.5" y="0.5" width="13" height="13"/></g><rect class="f" width="1" height="1" transform="translate(83 191)"/></g><g transform="translate(-44 -178)"><g class="e" transform="translate(83 191)"><rect class="i" width="14" height="14"/><rect class="b" x="0.5" y="0.5" width="13" height="13"/></g><rect class="f" width="1" height="1" transform="translate(83 191)"/></g><g transform="translate(-31 -178)"><g class="e" transform="translate(83 191)"><rect class="i" width="14" height="14"/><rect class="b" x="0.5" y="0.5" width="13" height="13"/></g><rect class="f" width="1" height="1" transform="translate(83 191)"/></g><g transform="translate(-18 -178)"><g class="e" transform="translate(83 191)"><rect class="i" width="14" height="14"/><rect class="b" x="0.5" y="0.5" width="13" height="13"/></g><rect class="f" width="1" height="1" transform="translate(83 191)"/></g><g transform="translate(-5 -178)"><g class="e" transform="translate(83 191)"><rect class="i" width="14" height="14"/><rect class="b" x="0.5" y="0.5" width="13" height="13"/></g><rect class="f" width="1" height="1" transform="translate(83 191)"/></g><g transform="translate(8 -178)"><g class="e" transform="translate(83 191)"><rect class="i" width="14" height="14"/><rect class="b" x="0.5" y="0.5" width="13" height="13"/></g><rect class="f" width="1" height="1" transform="translate(83 191)"/></g><g transform="translate(21 -178)"><g class="e" transform="translate(83 191)"><rect class="i" width="14" height="14"/><rect class="b" x="0.5" y="0.5" width="13" height="13"/></g><rect class="f" width="1" height="1" transform="translate(83 191)"/></g><g transform="translate(34 -178)"><g class="e" transform="translate(83 191)"><rect class="i" width="14" height="14"/><rect class="b" x="0.5" y="0.5" width="13" height="13"/></g><rect class="f" width="1" height="1" transform="translate(83 191)"/></g><g transform="translate(47 -178)"><g class="e" transform="translate(83 191)"><rect class="i" width="14" height="14"/><rect class="b" x="0.5" y="0.5" width="13" height="13"/></g><rect class="f" width="1" height="1" transform="translate(83 191)"/></g><g transform="translate(-83 -165)"><g class="e" transform="translate(83 191)"><rect class="i" width="14" height="14"/><rect class="b" x="0.5" y="0.5" width="13" height="13"/></g><rect class="f" width="1" height="1" transform="translate(83 191)"/></g><g transform="translate(-70 -165)"><g class="e" transform="translate(83 191)"><rect class="i" width="14" height="14"/><rect class="b" x="0.5" y="0.5" width="13" height="13"/></g><rect class="f" width="1" height="1" transform="translate(83 191)"/></g><g transform="translate(-57 -165)"><g class="e" transform="translate(83 191)"><rect class="i" width="14" height="14"/><rect class="b" x="0.5" y="0.5" width="13" height="13"/></g><rect class="f" width="1" height="1" transform="translate(83 191)"/></g><g transform="translate(-44 -165)"><g class="e" transform="translate(83 191)"><rect class="i" width="14" height="14"/><rect class="b" x="0.5" y="0.5" width="13" height="13"/></g><rect class="f" width="1" height="1" transform="translate(83 191)"/></g><g transform="translate(-31 -165)"><g class="e" transform="translate(83 191)"><rect class="i" width="14" height="14"/><rect class="b" x="0.5" y="0.5" width="13" height="13"/></g><rect class="f" width="1" height="1" transform="translate(83 191)"/></g><g transform="translate(-18 -165)"><g class="e" transform="translate(83 191)"><rect class="i" width="14" height="14"/><rect class="b" x="0.5" y="0.5" width="13" height="13"/></g><rect class="f" width="1" height="1" transform="translate(83 191)"/></g><g transform="translate(-5 -165)"><g class="e" transform="translate(83 191)"><rect class="i" width="14" height="14"/><rect class="b" x="0.5" y="0.5" width="13" height="13"/></g><rect class="f" width="1" height="1" transform="translate(83 191)"/></g><g transform="translate(8 -165)"><g class="e" transform="translate(83 191)"><rect class="i" width="14" height="14"/><rect class="b" x="0.5" y="0.5" width="13" height="13"/></g><rect class="f" width="1" height="1" transform="translate(83 191)"/></g><g transform="translate(21 -165)"><g class="e" transform="translate(83 191)"><rect class="i" width="14" height="14"/><rect class="b" x="0.5" y="0.5" width="13" height="13"/></g><rect class="f" width="1" height="1" transform="translate(83 191)"/></g><g transform="translate(34 -165)"><g class="e" transform="translate(83 191)"><rect class="i" width="14" height="14"/><rect class="b" x="0.5" y="0.5" width="13" height="13"/></g><rect class="f" width="1" height="1" transform="translate(83 191)"/></g><g transform="translate(47 -165)"><g class="e" transform="translate(83 191)"><rect class="i" width="14" height="14"/><rect class="b" x="0.5" y="0.5" width="13" height="13"/></g><rect class="f" width="1" height="1" transform="translate(83 191)"/></g><g transform="translate(-83 -152)"><g class="e" transform="translate(83 191)"><rect class="i" width="14" height="14"/><rect class="b" x="0.5" y="0.5" width="13" height="13"/></g><rect class="f" width="1" height="1" transform="translate(83 191)"/></g><g transform="translate(-70 -152)"><g class="e" transform="translate(83 191)"><rect class="i" width="14" height="14"/><rect class="b" x="0.5" y="0.5" width="13" height="13"/></g><rect class="f" width="1" height="1" transform="translate(83 191)"/></g><g transform="translate(-57 -152)"><g class="e" transform="translate(83 191)"><rect class="i" width="14" height="14"/><rect class="b" x="0.5" y="0.5" width="13" height="13"/></g><rect class="f" width="1" height="1" transform="translate(83 191)"/></g><g transform="translate(-44 -152)"><g class="e" transform="translate(83 191)"><rect class="i" width="14" height="14"/><rect class="b" x="0.5" y="0.5" width="13" height="13"/></g><rect class="f" width="1" height="1" transform="translate(83 191)"/></g><g transform="translate(-31 -152)"><g class="e" transform="translate(83 191)"><rect class="i" width="14" height="14"/><rect class="b" x="0.5" y="0.5" width="13" height="13"/></g><rect class="f" width="1" height="1" transform="translate(83 191)"/></g><g transform="translate(-18 -152)"><g class="e" transform="translate(83 191)"><rect class="i" width="14" height="14"/><rect class="b" x="0.5" y="0.5" width="13" height="13"/></g><rect class="f" width="1" height="1" transform="translate(83 191)"/></g><g transform="translate(-5 -152)"><g class="e" transform="translate(83 191)"><rect class="i" width="14" height="14"/><rect class="b" x="0.5" y="0.5" width="13" height="13"/></g><rect class="f" width="1" height="1" transform="translate(83 191)"/></g><g transform="translate(8 -152)"><g class="e" transform="translate(83 191)"><rect class="i" width="14" height="14"/><rect class="b" x="0.5" y="0.5" width="13" height="13"/></g><rect class="f" width="1" height="1" transform="translate(83 191)"/></g><g transform="translate(21 -152)"><g class="e" transform="translate(83 191)"><rect class="i" width="14" height="14"/><rect class="b" x="0.5" y="0.5" width="13" height="13"/></g><rect class="f" width="1" height="1" transform="translate(83 191)"/></g><g transform="translate(34 -152)"><g class="e" transform="translate(83 191)"><rect class="i" width="14" height="14"/><rect class="b" x="0.5" y="0.5" width="13" height="13"/></g><rect class="f" width="1" height="1" transform="translate(83 191)"/></g><g transform="translate(47 -152)"><g class="e" transform="translate(83 191)"><rect class="i" width="14" height="14"/><rect class="b" x="0.5" y="0.5" width="13" height="13"/></g><rect class="f" width="1" height="1" transform="translate(83 191)"/></g><g transform="translate(-83 -139)"><g class="e" transform="translate(83 191)"><rect class="i" width="14" height="14"/><rect class="b" x="0.5" y="0.5" width="13" height="13"/></g><rect class="f" width="1" height="1" transform="translate(83 191)"/></g><g transform="translate(-70 -139)"><g class="e" transform="translate(83 191)"><rect class="i" width="14" height="14"/><rect class="b" x="0.5" y="0.5" width="13" height="13"/></g><rect class="f" width="1" height="1" transform="translate(83 191)"/></g><g transform="translate(-57 -139)"><g class="e" transform="translate(83 191)"><rect class="i" width="14" height="14"/><rect class="b" x="0.5" y="0.5" width="13" height="13"/></g><rect class="f" width="1" height="1" transform="translate(83 191)"/></g><g transform="translate(-44 -139)"><g class="e" transform="translate(83 191)"><rect class="i" width="14" height="14"/><rect class="b" x="0.5" y="0.5" width="13" height="13"/></g><rect class="f" width="1" height="1" transform="translate(83 191)"/></g><g transform="translate(-31 -139)"><g class="e" transform="translate(83 191)"><rect class="i" width="14" height="14"/><rect class="b" x="0.5" y="0.5" width="13" height="13"/></g><rect class="f" width="1" height="1" transform="translate(83 191)"/></g><g transform="translate(-18 -139)"><g class="e" transform="translate(83 191)"><rect class="i" width="14" height="14"/><rect class="b" x="0.5" y="0.5" width="13" height="13"/></g><rect class="f" width="1" height="1" transform="translate(83 191)"/></g><g transform="translate(-5 -139)"><g class="e" transform="translate(83 191)"><rect class="i" width="14" height="14"/><rect class="b" x="0.5" y="0.5" width="13" height="13"/></g><rect class="f" width="1" height="1" transform="translate(83 191)"/></g><g transform="translate(8 -139)"><g class="e" transform="translate(83 191)"><rect class="i" width="14" height="14"/><rect class="b" x="0.5" y="0.5" width="13" height="13"/></g><rect class="f" width="1" height="1" transform="translate(83 191)"/></g><g transform="translate(21 -139)"><g class="e" transform="translate(83 191)"><rect class="i" width="14" height="14"/><rect class="b" x="0.5" y="0.5" width="13" height="13"/></g><rect class="f" width="1" height="1" transform="translate(83 191)"/></g><g transform="translate(34 -139)"><g class="e" transform="translate(83 191)"><rect class="i" width="14" height="14"/><rect class="b" x="0.5" y="0.5" width="13" height="13"/></g><rect class="f" width="1" height="1" transform="translate(83 191)"/></g><g transform="translate(47 -139)"><g class="e" transform="translate(83 191)"><rect class="i" width="14" height="14"/><rect class="b" x="0.5" y="0.5" width="13" height="13"/></g><rect class="f" width="1" height="1" transform="translate(83 191)"/></g></g><g class="j" transform="matrix(1, 0, 0, 1, 0, -5)"><g class="g" transform="translate(3 8)"><rect class="i" width="131" height="53"/><rect class="b" x="0.5" y="0.5" width="130" height="52"/></g></g></g><g transform="translate(0 56)"><path class="h" d="M0,8V0H1V7H8V8H1V8Z" transform="translate(0)"/></g><g transform="translate(137 13) rotate(180)"><path class="h" d="M7291,3173v-8h1v7h7v1Z" transform="translate(-7291 -3165)"/></g><g transform="translate(129 64) rotate(-90)"><path class="h" d="M7291,3173v-8h1v7h7v1Z" transform="translate(-7291 -3165)"/></g><rect class="h" width="2" height="16" transform="translate(3)"/></g></svg>
