<svg xmlns="http://www.w3.org/2000/svg" width="32" height="32" viewBox="0 0 32 32"><defs><style>.a{fill:#eceff1;}.b{fill:#a0a8b5;}</style></defs><g transform="translate(-600 -441)"><rect class="a" width="32" height="32" rx="16" transform="translate(600 441)"/><path class="b" d="M8129-2220.5v-7a1.5,1.5,0,0,1,1.5-1.5,1.5,1.5,0,0,1,1.5,1.5v7a1.5,1.5,0,0,1-1.5,1.5A1.5,1.5,0,0,1,8129-2220.5Zm-7,0v-7a1.5,1.5,0,0,1,1.5-1.5,1.5,1.5,0,0,1,1.5,1.5v7a1.5,1.5,0,0,1-1.5,1.5A1.5,1.5,0,0,1,8122-2220.5Z" transform="translate(-7511 2681)"/></g></svg>