<svg xmlns="http://www.w3.org/2000/svg" width="32" height="32" viewBox="0 0 32 32"><defs><style>.a{fill:#eceff1;}.b{fill:#8a9ea9;}</style></defs><g transform="translate(-600 -441)"><rect class="a" width="32" height="32" rx="16" transform="translate(600 441)"/><g transform="translate(610 451)"><path class="b" d="M7691.285-746.1h-7.57a.639.639,0,0,1-.65-.566l-.564-7.788a.582.582,0,0,1,.16-.439.674.674,0,0,1,.491-.208h8.7a.673.673,0,0,1,.493.21.576.576,0,0,1,.158.437l-.564,7.788A.636.636,0,0,1,7691.285-746.1Zm-2.284-7a.5.5,0,0,0-.5.5v4a.5.5,0,0,0,.5.5.5.5,0,0,0,.5-.5v-4A.5.5,0,0,0,7689-753.1Zm-3,0a.5.5,0,0,0-.5.5v4a.5.5,0,0,0,.5.5.5.5,0,0,0,.5-.5v-4A.5.5,0,0,0,7686-753.1Z" transform="translate(-7681.5 758.101)"/><path class="b" d="M7690.5-753.1H7683a.5.5,0,0,1-.5-.5.5.5,0,0,1,.5-.5h3.5a1,1,0,0,1,1-1h2a1,1,0,0,1,1,1h3.5a.5.5,0,0,1,.5.5.5.5,0,0,1-.5.5Z" transform="translate(-7682.5 755.101)"/></g></g></svg>