<svg xmlns="http://www.w3.org/2000/svg" width="32" height="32" viewBox="0 0 32 32"><defs><style>.a{fill:#eceff1;}.b{fill:#8a9ea9;}</style></defs><g transform="translate(-600 -441)"><rect class="a" width="32" height="32" rx="16" transform="translate(600 441)"/><path class="b" d="M5229,5658a8.194,8.194,0,0,1-6.475-3.4,2.714,2.714,0,0,1,0-3.2,7.865,7.865,0,0,1,12.95,0,2.714,2.714,0,0,1,0,3.2A8.194,8.194,0,0,1,5229,5658Zm0-8a3,3,0,1,0,3,3A3,3,0,0,0,5229,5650Zm0,5a2,2,0,1,1,2-2A2,2,0,0,1,5229,5655Z" transform="translate(-4613 -5196)"/></g></svg>