<svg xmlns="http://www.w3.org/2000/svg" width="221.832" height="69.999" viewBox="0 0 221.832 69.999"><defs><style>.a{fill:#080843;opacity:0.5;}.a,.b{stroke-linecap:round;stroke-linejoin:bevel;}.b{fill:#0f275f;stroke:#71bdff;}.c,.d{stroke:none;}.d{fill:#71bdff;}.e{fill:none;}</style></defs><g transform="translate(-81 -308)"><g class="a" transform="translate(-5777 -2221.001)"><path class="c" d="M 6063.2666015625 2598.499755859375 L 6062.9990234375 2598.499755859375 L 5867 2598.499755859375 L 5866.81201171875 2598.499755859375 L 5866.6708984375 2598.3759765625 L 5858.67041015625 2591.37646484375 L 5858.45361328125 2591.18701171875 L 5858.5087890625 2590.904541015625 L 5866.50927734375 2549.90478515625 L 5866.58837890625 2549.50048828125 L 5867 2549.50048828125 L 6062.9990234375 2549.50048828125 L 6063.2666015625 2549.50048828125 L 6063.4150390625 2549.72314453125 L 6079.41552734375 2573.722900390625 L 6079.6005859375 2574.000244140625 L 6079.41552734375 2574.277587890625 L 6063.4150390625 2598.277099609375 L 6063.2666015625 2598.499755859375 Z"/><path class="d" d="M 5867 2550.00048828125 L 5858.99951171875 2591.000244140625 L 5867 2597.999755859375 L 6062.9990234375 2597.999755859375 L 6062.9990234375 2550.00048828125 L 5867 2550.00048828125 M 6062.9990234375 2550.00048828125 L 6062.9990234375 2597.999755859375 L 6078.99951171875 2574.000244140625 L 6062.9990234375 2550.00048828125 M 5867 2549.00048828125 L 6062.9990234375 2549.00048828125 L 6063.5341796875 2549.53564453125 L 6063.8310546875 2549.44580078125 L 6079.83154296875 2573.445556640625 L 6079.83154296875 2574.554931640625 L 6063.8310546875 2598.554443359375 L 6063.5341796875 2598.464599609375 L 6062.9990234375 2598.999755859375 L 5867 2598.999755859375 L 5866.34130859375 2598.75244140625 L 5858.34130859375 2591.7529296875 L 5858.01806640625 2590.808837890625 L 5866.0185546875 2549.80908203125 L 5867 2549.00048828125 Z"/></g><g class="a" transform="translate(-5777 -2221.001)"><path class="c" d="M 6063.2666015625 2598.499755859375 L 6062.9990234375 2598.499755859375 L 5867 2598.499755859375 L 5866.81201171875 2598.499755859375 L 5866.6708984375 2598.3759765625 L 5858.67041015625 2591.37646484375 L 5858.45361328125 2591.18701171875 L 5858.5087890625 2590.904541015625 L 5866.50927734375 2549.90478515625 L 5866.58837890625 2549.50048828125 L 5867 2549.50048828125 L 6062.9990234375 2549.50048828125 L 6063.2666015625 2549.50048828125 L 6063.4150390625 2549.72314453125 L 6079.41552734375 2573.722900390625 L 6079.6005859375 2574.000244140625 L 6079.41552734375 2574.277587890625 L 6063.4150390625 2598.277099609375 L 6063.2666015625 2598.499755859375 Z"/><path class="d" d="M 5867 2550.00048828125 L 5858.99951171875 2591.000244140625 L 5867 2597.999755859375 L 6062.9990234375 2597.999755859375 L 6062.9990234375 2550.00048828125 L 5867 2550.00048828125 M 6062.9990234375 2550.00048828125 L 6062.9990234375 2597.999755859375 L 6078.99951171875 2574.000244140625 L 6062.9990234375 2550.00048828125 M 5867 2549.00048828125 L 6062.9990234375 2549.00048828125 L 6063.5341796875 2549.53564453125 L 6063.8310546875 2549.44580078125 L 6079.83154296875 2573.445556640625 L 6079.83154296875 2574.554931640625 L 6063.8310546875 2598.554443359375 L 6063.5341796875 2598.464599609375 L 6062.9990234375 2598.999755859375 L 5867 2598.999755859375 L 5866.34130859375 2598.75244140625 L 5858.34130859375 2591.7529296875 L 5858.01806640625 2590.808837890625 L 5866.0185546875 2549.80908203125 L 5867 2549.00048828125 Z"/></g><g class="b" transform="translate(82 309)"><rect class="c" width="100" height="60"/><rect class="e" x="-0.5" y="-0.5" width="101" height="61"/></g></g></svg>