<svg xmlns="http://www.w3.org/2000/svg" width="16" height="24" viewBox="0 0 16 24">
  <g id="tb_sj2" transform="translate(-77 -563)">
    <rect id="矩形_4551" data-name="矩形 4551" width="16" height="24" rx="2" transform="translate(77 563)" fill="#088ff8" opacity="0.2"/>
    <path id="减去_242" data-name="减去 242" d="M3875,3157h-12a2,2,0,0,1-2-2h16A2,2,0,0,1,3875,3157Zm2-22h-16a2,2,0,0,1,2-2h12a2,2,0,0,1,2,2Z" transform="translate(-3784 -2570)" fill="#088ff8"/>
    <path id="矩形_4554" data-name="矩形 4554" d="M2,0H2A0,0,0,0,1,2,0V24a0,0,0,0,1,0,0H2a2,2,0,0,1-2-2V2A2,2,0,0,1,2,0Z" transform="translate(77 563)" fill="#088ff8" opacity="0.2"/>
    <path id="矩形_4555" data-name="矩形 4555" d="M0,0H0A2,2,0,0,1,2,2V22a2,2,0,0,1-2,2H0a0,0,0,0,1,0,0V0A0,0,0,0,1,0,0Z" transform="translate(91 563)" fill="#088ff8" opacity="0.2"/>
    <path id="矩形_4556" data-name="矩形 4556" d="M0,0H8A0,0,0,0,1,8,0V0A2,2,0,0,1,6,2H2A2,2,0,0,1,0,0V0A0,0,0,0,1,0,0Z" transform="translate(81 565)" fill="#088ff8"/>
  </g>
</svg>
